<svg width="14" height="12" viewBox="0 0 14 12" fill="none" xmlns="http://www.w3.org/2000/svg">
<path d="M9.05623 0.500004C9.4614 0.499955 9.85943 0.606954 10.2103 0.810241C10.5612 1.01353 10.8526 1.30594 11.0551 1.65807C11.2577 2.0102 11.3643 2.40964 11.3642 2.81623C11.3641 3.22281 11.2574 3.62221 11.0547 3.97427L13.6716 3.97369V5.13158H12.5178V10.9211C12.5178 11.0746 12.457 11.2219 12.3488 11.3304C12.2406 11.439 12.0939 11.5 11.9408 11.5H2.71008C2.55707 11.5 2.41033 11.439 2.30213 11.3304C2.19394 11.2219 2.13316 11.0746 2.13316 10.9211V5.13158H0.979309V3.97369L3.59623 3.97427C3.31 3.47688 3.21817 2.89051 3.33857 2.329C3.45897 1.76749 3.78301 1.27091 4.24777 0.935692C4.71253 0.600472 5.28485 0.450532 5.85359 0.514986C6.42233 0.57944 6.94691 0.853687 7.32546 1.28448C7.54157 1.03749 7.80781 0.839714 8.10631 0.704417C8.40481 0.56912 8.72869 0.499424 9.05623 0.500004ZM6.74854 5.13158H3.287V10.3421H6.74854V5.13158ZM11.3639 5.13158H7.90239V10.3421H11.3639V5.13158ZM5.59469 1.6579C5.29528 1.65655 5.00707 1.77206 4.79095 1.98001C4.57483 2.18797 4.44773 2.47208 4.4365 2.77234C4.42526 3.07259 4.53078 3.36547 4.73075 3.5891C4.93072 3.81273 5.20948 3.9496 5.50816 3.97079L5.59469 3.97369H6.74854V2.81579C6.74855 2.53909 6.64982 2.27153 6.47023 2.06157C6.29063 1.85161 6.04205 1.71313 5.7695 1.67121L5.68066 1.66079L5.59469 1.6579ZM9.05623 1.6579C8.76513 1.65781 8.48475 1.76813 8.2713 1.96676C8.05785 2.1654 7.9271 2.43765 7.90527 2.72895L7.90239 2.81579V3.97369H9.05623C9.34733 3.97378 9.62771 3.86345 9.84116 3.66482C10.0546 3.46619 10.1854 3.19394 10.2072 2.90263L10.2101 2.81579C10.2101 2.5087 10.0885 2.21418 9.87212 1.99704C9.65574 1.77989 9.36225 1.6579 9.05623 1.6579Z" fill="#40434E"/>
</svg>
