<svg width="105" height="68" viewBox="0 0 105 68" fill="none" xmlns="http://www.w3.org/2000/svg">
<path d="M0.749207 60.5577C0.42767 61.0746 0.586245 61.7541 1.10332 62.0757L9.53 67.3149C10.0471 67.6364 10.7269 67.4781 11.0484 66.9613C11.37 66.4445 11.2115 65.7649 10.6943 65.4434L3.20394 60.7863L7.86133 53.3004C8.18286 52.7836 8.02428 52.1041 7.50721 51.7825C6.99008 51.461 6.31024 51.6194 5.98872 52.1361L0.749207 60.5577ZM29.7823 53.0653L30.1426 54.1069C30.1672 54.0984 30.1915 54.089 30.2154 54.0789L29.7823 53.0653ZM60.5635 32.2636L59.7747 31.4934L59.7746 31.4935L60.5635 32.2636ZM72.3848 10.3285L71.3261 10.6358L71.3259 10.6363L72.3848 10.3285ZM57.6135 19.3713L56.5617 19.0408L56.5612 19.0424L57.6135 19.3713ZM71.7566 26.9328L72.1967 27.9433L71.7566 26.9328ZM104.25 1.89769C104.65 1.43916 104.603 0.742675 104.144 0.34239C103.686 -0.0578964 102.989 -0.0106577 102.588 0.447732L104.25 1.89769ZM1.9359 62.2132C6.16718 61.2279 18.0862 58.2717 30.1426 54.1069L29.4219 52.0237C17.4665 56.1535 5.62933 59.0899 1.43511 60.0666L1.9359 62.2132ZM30.2154 54.0789C41.5014 49.2633 52.7676 41.8193 61.3519 33.0336L59.7746 31.4935C51.4101 40.0536 40.3924 47.3398 29.3492 52.0517L30.2154 54.0789ZM61.3518 33.0337C63.5339 30.8013 67.0706 27.0411 69.8033 22.9145C71.1694 20.8509 72.3605 18.658 73.0735 16.4871C73.7853 14.3205 74.047 12.0938 73.443 10.021L71.3259 10.6363C71.7621 12.1334 71.6096 13.8784 70.9787 15.799C70.3493 17.716 69.2695 19.7264 67.9641 21.6976C65.353 25.6416 61.9392 29.2784 59.7747 31.4934L61.3518 33.0337ZM73.4434 10.0217C73.0796 8.76795 72.5273 7.7775 71.7363 7.13071C70.9147 6.45899 69.9517 6.25269 68.9885 6.36326C67.1851 6.57111 65.2935 7.89642 63.6578 9.4014C61.9718 10.9537 60.3556 12.8893 59.0967 14.642C57.8641 16.3583 56.88 18.0275 56.5617 19.0408L58.6654 19.7017C58.8688 19.0542 59.6635 17.6327 60.8881 15.928C62.0856 14.2608 63.6044 12.4469 65.152 11.0228C66.7504 9.55209 68.1912 8.674 69.2413 8.55281C69.7042 8.49953 70.0478 8.59764 70.3403 8.83678C70.6634 9.10086 71.0333 9.62788 71.3261 10.6358L73.4434 10.0217ZM56.5612 19.0424C55.746 21.6461 55.7947 23.8218 56.6322 25.5405C57.4729 27.266 59.011 28.3314 60.7591 28.9091C64.1949 30.0444 68.7806 29.4276 72.1967 27.9433L71.3171 25.9219C68.2344 27.261 64.2245 27.7328 61.4508 26.8164C60.0946 26.3684 59.1246 25.6227 58.6147 24.576C58.1014 23.5227 57.9566 21.9658 58.6657 19.7006L56.5612 19.0424ZM72.1967 27.9433C84.8665 22.4306 95.4644 11.9581 104.25 1.89769L102.588 0.447732C93.8408 10.4655 83.5114 20.6156 71.3165 25.9223L72.1967 27.9433Z" fill="#19C8AB"/>
</svg>
