<svg width="52" height="85" viewBox="0 0 52 85" fill="none" xmlns="http://www.w3.org/2000/svg">
<path d="M45.8947 1.0228C46.2943 0.753827 46.8362 0.859874 47.1051 1.2596L51.4881 7.77397C51.757 8.1737 51.6512 8.7158 51.2517 8.98477C50.8522 9.25374 50.3103 9.14774 50.0413 8.74797L46.1454 2.95742L40.3583 6.85347C39.9589 7.12243 39.417 7.01639 39.148 6.61666C38.879 6.21689 38.9849 5.67478 39.3844 5.40582L45.8947 1.0228ZM40.7966 24.1945L41.6305 24.4498C41.6245 24.4695 41.6178 24.4889 41.6104 24.5081L40.7966 24.1945ZM25.2237 49.1276L24.5922 48.5257L24.5923 48.5257L25.2237 49.1276ZM8.21471 59.1L8.42756 58.254L8.42798 58.2539L8.21471 59.1ZM14.9449 47.1619L14.6536 46.3395L14.6549 46.3391L14.9449 47.1619ZM21.327 58.1305L22.1386 58.4497L21.327 58.1305ZM2.45522 84.5377C2.10403 84.8674 1.55194 84.8502 1.22234 84.4988C0.892744 84.1474 0.910269 83.5953 1.26134 83.2653L2.45522 84.5377ZM47.2376 1.91406C46.5789 5.28808 44.5806 14.7974 41.6305 24.4498L39.9626 23.9392C42.888 14.3677 44.873 4.92363 45.5259 1.57918L47.2376 1.91406ZM41.6104 24.5081C38.1237 33.5699 32.558 42.6908 25.8551 49.729L24.5923 48.5257C31.1232 41.6676 36.5711 32.7476 39.9827 23.8809L41.6104 24.5081ZM25.8551 49.729C24.1519 51.5181 21.2792 54.4218 18.0939 56.7003C16.5009 57.8393 14.8007 58.8436 13.1044 59.4692C11.4114 60.0938 9.65803 60.3641 8.00173 59.9456L8.42798 58.2539C9.62424 58.5562 10.9998 58.3859 12.5006 57.8323C13.9985 57.2801 15.5576 56.369 17.0792 55.2806C20.1236 53.1035 22.9023 50.3004 24.5922 48.5257L25.8551 49.729ZM8.00227 59.9459C7.00049 59.6938 6.20155 59.2853 5.66757 58.6782C5.113 58.0476 4.92245 57.292 4.98247 56.5272C5.09548 55.0953 6.08963 53.5617 7.23315 52.2254C8.41268 50.848 9.89726 49.5148 11.2474 48.4694C12.5694 47.4458 13.8614 46.6201 14.6536 46.3395L15.2361 47.9843C14.7299 48.1636 13.6284 48.8324 12.3153 49.8493C11.031 50.8438 9.63993 52.0964 8.55788 53.3608C7.44036 54.6666 6.78702 55.8309 6.72109 56.6648C6.69214 57.0323 6.77949 57.3012 6.97693 57.5258C7.19496 57.7737 7.62224 58.0512 8.42756 58.254L8.00227 59.9459ZM14.6549 46.3391C16.6906 45.6204 18.4124 45.5969 19.7954 46.2103C21.1838 46.8259 22.0701 48.0119 22.5766 49.3777C23.5722 52.0623 23.2151 55.7062 22.1386 58.4497L20.5151 57.8117C21.4862 55.3359 21.7451 52.1516 20.9415 49.9843C20.5486 48.9246 19.9313 48.1788 19.0891 47.8054C18.2416 47.4295 17.0063 47.3593 15.2353 47.9846L14.6549 46.3391ZM22.1386 58.4497C18.14 68.6256 10.1605 77.3042 2.45522 84.5377L1.26134 83.2653C8.93402 76.0628 16.6663 67.6057 20.5154 57.8112L22.1386 58.4497Z" fill="#19C8AB"/>
</svg>
