<svg width="69" height="52" viewBox="0 0 69 52" fill="none" xmlns="http://www.w3.org/2000/svg">
<path d="M3.0045 0.892556C2.59218 0.822448 2.2012 1.10002 2.13118 1.51249L0.990214 8.23436C0.920195 8.64683 1.19767 9.03804 1.60996 9.10815C2.02226 9.17826 2.41326 8.90072 2.48328 8.48822L3.49746 2.51323L9.46968 3.52875C9.88195 3.59886 10.2729 3.32129 10.343 2.90882C10.413 2.49631 10.1355 2.1051 9.72321 2.03499L3.0045 0.892556ZM15.3195 17.4096L14.7508 17.9096C14.7625 17.923 14.7748 17.936 14.7875 17.9486L15.3195 17.4096ZM36.5539 31.5775L36.8386 30.8755L36.8386 30.8755L36.5539 31.5775ZM53.5789 33.392L53.1081 32.7985L53.1077 32.7986L53.5789 33.392ZM43.9865 26.3488L43.9231 25.5938L43.922 25.5939L43.9865 26.3488ZM42.855 37.3102L42.3267 37.8529L42.855 37.3102ZM67.227 51.466C67.6228 51.6014 68.0536 51.3906 68.1889 50.9947C68.3241 50.5987 68.113 50.1681 67.7172 50.0324L67.227 51.466ZM2.26019 2.07779C3.98716 4.51271 8.96677 11.3246 14.7508 17.9096L15.8883 16.9095C10.1528 10.3797 5.20706 3.61468 3.49524 1.20108L2.26019 2.07779ZM14.7875 17.9486C20.7851 23.8744 28.4492 29.1041 36.2692 32.2791L36.8386 30.8755C29.2191 27.7816 21.72 22.6688 15.8516 16.8706L14.7875 17.9486ZM36.2691 32.2791C38.2564 33.0864 41.5675 34.358 44.9027 35.023C46.5705 35.3552 48.2749 35.5425 49.841 35.4314C51.4041 35.3208 52.8883 34.9082 54.0496 33.9851L53.1077 32.7986C52.269 33.4653 51.1195 33.822 49.7339 33.9202C48.351 34.0184 46.7916 33.8544 45.1984 33.5368C42.011 32.9017 38.8103 31.6761 36.8386 30.8755L36.2691 32.2791ZM54.0493 33.9855C54.752 33.4281 55.2384 32.8192 55.444 32.1479C55.6576 31.4507 55.5384 30.7846 55.2176 30.2008C54.6165 29.1079 53.2817 28.2494 51.8991 27.6004C50.4734 26.9318 48.8221 26.4072 47.38 26.0623C45.9679 25.7246 44.6504 25.5328 43.9231 25.5938L44.0498 27.1037C44.5145 27.0647 45.6253 27.2005 47.0279 27.536C48.3997 27.8641 49.9483 28.3584 51.2564 28.9724C52.6075 29.6066 53.5406 30.2946 53.8908 30.9309C54.045 31.2115 54.072 31.4555 53.996 31.7038C53.912 31.9779 53.673 32.3502 53.1081 32.7985L54.0493 33.9855ZM43.922 25.5939C42.054 25.7526 40.6829 26.3493 39.8076 27.3289C38.9288 28.3122 38.6511 29.5676 38.7383 30.8296C38.9096 33.31 40.4944 36.0662 42.3267 37.8529L43.3837 36.7678C41.7304 35.1554 40.3875 32.7277 40.2491 30.7253C40.1814 29.7462 40.4034 28.9355 40.9365 28.339C41.4729 27.7386 42.4255 27.2417 44.0506 27.1036L43.922 25.5939ZM42.3267 37.8529C49.1275 44.4775 58.544 48.4946 67.227 51.466L67.7172 50.0324C59.0711 47.0738 49.9295 43.1437 43.3832 36.7675L42.3267 37.8529Z" fill="#EB5E55"/>
</svg>
