<svg width="119" height="37" viewBox="0 0 119 37" fill="none" xmlns="http://www.w3.org/2000/svg">
<path d="M117.215 3.19756C117.817 3.3314 118.196 3.92765 118.062 4.5293L115.877 14.3341C115.743 14.9357 115.147 15.315 114.545 15.1812C113.944 15.0473 113.565 14.4511 113.699 13.8494L115.641 5.13408L106.929 3.1956C106.327 3.06179 105.948 2.46554 106.082 1.86389C106.216 1.26219 106.813 0.88295 107.414 1.01676L117.215 3.19756ZM91.2231 18.8757L91.7207 19.8744C91.6971 19.8861 91.6732 19.897 91.6489 19.9071L91.2231 18.8757ZM54.3706 26.3852L54.3729 25.2691L54.373 25.2692L54.3706 26.3852ZM30.1358 19.3853L31.1082 18.8377L31.1087 18.838L30.1358 19.3853ZM47.1414 15.1158L47.6479 14.1212L47.6494 14.1219L47.1414 15.1158ZM42.5843 30.6987L43.0029 31.7331L42.5843 30.6987ZM1.45826 36.4456C0.843067 36.41 0.372699 35.8826 0.408511 35.2672C0.444323 34.6519 0.972009 34.1819 1.58749 34.217L1.45826 36.4456ZM117.571 5.22867C113.86 7.58917 103.276 14.1104 91.7207 19.8744L90.7255 17.877C102.184 12.1613 112.696 5.68517 116.374 3.34532L117.571 5.22867ZM91.6489 19.9071C80.1692 24.653 66.8034 27.5217 54.3685 27.5009L54.373 25.2692C66.4891 25.2891 79.5647 22.488 90.7973 17.8443L91.6489 19.9071ZM54.3686 27.5009C51.2083 27.4962 45.9837 27.388 41.0638 26.4389C38.6038 25.964 36.1744 25.2709 34.0998 24.2478C32.0291 23.2269 30.234 21.838 29.1635 19.9324L31.1087 18.838C31.8819 20.2143 33.2514 21.3407 35.0869 22.2458C36.9188 23.1494 39.1374 23.7936 41.4875 24.247C46.1892 25.1545 51.2376 25.264 54.3729 25.2691L54.3686 27.5009ZM29.1637 19.9332C28.5153 18.7816 28.1907 17.6804 28.2837 16.6502C28.3804 15.5802 28.9138 14.7378 29.6763 14.1199C31.1046 12.9636 33.4033 12.5353 35.6505 12.4195C37.9676 12.3008 40.5122 12.5043 42.6715 12.8363C44.7857 13.1616 46.6898 13.6332 47.6479 14.1212L46.6348 16.1104C46.0225 15.7986 44.4317 15.3655 42.3315 15.0427C40.2776 14.7268 37.89 14.5393 35.7637 14.6488C33.5676 14.762 31.9118 15.1812 31.08 15.8544C30.7134 16.1513 30.5408 16.4692 30.5064 16.8501C30.4683 17.2709 30.5872 17.9118 31.1082 18.8377L29.1637 19.9332ZM47.6494 14.1219C50.1094 15.378 51.6477 16.9551 52.2966 18.7786C52.9482 20.6091 52.6283 22.4762 51.807 24.1492C50.1928 27.4376 46.4969 30.3155 43.0029 31.7331L42.165 29.6646C45.3178 28.3852 48.5007 25.8208 49.804 23.1662C50.4413 21.8683 50.5896 20.6386 50.1943 19.5282C49.7967 18.4107 48.7738 17.2026 46.6338 16.1098L47.6494 14.1219ZM43.0029 31.7331C30.0385 36.9852 14.9572 37.2246 1.45826 36.4456L1.58749 34.217C15.0288 34.993 29.6869 34.7194 42.1657 29.6644L43.0029 31.7331Z" fill="#10B981"/>
</svg>
