<?xml version="1.0" encoding="utf-8"?>
<svg width="570px" height="235px" viewBox="0 0 570 235" version="1.1" xmlns:xlink="http://www.w3.org/1999/xlink" xmlns="http://www.w3.org/2000/svg">
  <desc>Created with Lunacy</desc>
  <defs>
    <path d="M0 0L570 0L570 235L0 235L0 0L0 0Z" id="path_1" />
    <clipPath id="mask_1">
      <use xlink:href="#path_1" />
    </clipPath>
  </defs>
  <g id="cases-thumb-shape-lg">
    <g id="Mask-group-(1)">
      <path d="M0 0L570 0L570 235L0 235L0 0L0 0Z" id="Background" fill="none" stroke="none" />
      <g id="Mask-group">
        <path d="M0 0L570 0L570 235L0 235L0 0L0 0Z" id="path_1" fill="none" stroke="none" />
        <g clip-path="url(#mask_1)">
          <g id="Group" transform="translate(-5.5187243E-06 -33.000305)">
            <g id="Mask-group">
              <path d="M570 244.602L570 22.8086C570 10.2118 563.523 3.78381e-05 555.533 3.72875e-05L14.467 0C6.47714 -5.5071e-07 5.85798e-06 10.2117 5.50872e-06 22.8085L0 221.498C129.394 205.426 157.838 229.535 261.017 258.163C343.562 281.066 501.399 258.666 570 244.602L570 244.602L570 244.602Z" id="Shape" fill="#B9B9C9" stroke="none" />
            </g>
          </g>
        </g>
      </g>
    </g>
  </g>
</svg>