<svg width="15" height="12" viewBox="0 0 15 12" fill="none" xmlns="http://www.w3.org/2000/svg">
<path d="M14.3319 1.97809C14.3232 1.93722 14.305 1.89776 14.2629 1.86427C13.8795 1.55687 12.973 0.31736 12.3776 0.522858C11.5471 0.809817 6.98117 6.89244 5.96899 8.233C5.61552 7.72152 2.67148 3.63229 2.52376 3.72397C2.01781 4.03704 1.4956 4.3047 1.01235 4.65807C0.958255 4.69781 0.930505 4.74919 0.922376 4.8017C0.856224 4.85392 0.813898 4.94049 0.839686 5.04636C1.25454 6.75222 2.66503 8.09562 3.67245 9.4393C4.25745 10.2196 5.07313 12.1837 6.17277 11.2564C6.19155 11.2405 6.20276 11.2224 6.2151 11.2039C6.43093 11.1148 6.61565 10.9414 6.80906 10.7302C7.64718 9.81624 8.38494 8.81202 9.16251 7.84357C9.99361 6.80814 10.9155 5.83883 11.8285 4.88287C12.6257 4.04811 13.3337 2.94285 14.2733 2.29003C14.3905 2.208 14.3908 2.07261 14.3319 1.97809ZM3.47932 4.98818C3.21583 4.75231 2.94282 4.52297 2.65775 4.30214C2.96496 4.49487 3.23601 4.72676 3.47932 4.98818ZM2.21598 5.18402C2.15964 5.13009 2.09657 5.11902 2.03911 5.13237C2.00295 5.03018 1.97296 4.92743 1.9567 4.82554C1.94605 4.75969 1.9141 4.71115 1.87261 4.67851C1.88943 4.66574 1.90513 4.65297 1.9225 4.64048C1.92559 4.68788 1.94241 4.73528 1.97801 4.77842C2.61458 5.54109 3.33188 6.22173 3.9791 6.97418C4.05338 7.06075 4.12598 7.14817 4.19886 7.23503C3.51127 6.57539 2.90497 5.83997 2.21598 5.18402ZM4.79535 10.2761C4.85954 10.351 4.92345 10.4262 4.98904 10.4997C5.06501 10.6047 5.14181 10.7098 5.22114 10.8134C5.22142 10.8145 5.2217 10.8159 5.22198 10.8168C5.06641 10.6748 4.92345 10.4745 4.79535 10.2761ZM5.00138 8.61305C5.19002 8.78165 5.38736 8.9423 5.59478 9.07117C5.58974 9.10466 5.59226 9.1373 5.60039 9.16881C5.60291 9.18271 5.60852 9.19662 5.61384 9.21025C5.41567 9.00588 5.20908 8.80919 5.00138 8.61305ZM5.91881 10.8046C5.91825 10.8026 5.91853 10.8006 5.91769 10.7992C5.91097 10.7836 5.90312 10.7696 5.89639 10.7543C6.08868 10.752 6.34039 10.6076 6.61677 10.3825C6.37263 10.6158 6.13129 10.7801 5.91881 10.8046ZM12.4681 1.06782C12.2887 1.14701 12.1393 1.26906 12.0056 1.4124C12.1379 1.2211 12.2781 1.07407 12.4681 1.06782ZM8.02951 6.95403C7.92244 7.06785 7.73071 7.24014 7.49945 7.45131C7.7038 7.24439 7.91571 7.0477 8.10604 6.85128C8.72691 6.21208 9.20763 5.42812 9.70882 4.67879C10.2773 4.11396 10.8662 3.57637 11.4094 2.98259C11.7668 2.59146 11.9869 1.96446 12.4048 1.63039C12.1262 1.92785 11.9061 2.35758 11.7183 2.77056C11.4204 3.08846 11.1569 3.44779 10.8805 3.79578C10.0029 4.90217 8.99348 5.92966 8.02951 6.95403ZM11.7007 4.30867C11.2586 4.85108 10.7625 5.34496 10.2907 5.86041C10.6467 5.40854 11.0002 4.9544 11.3248 4.47585C11.3503 4.4381 11.3811 4.38502 11.415 4.32002C11.5291 4.2045 11.6432 4.08927 11.755 3.97176C12.0791 3.63002 12.4642 3.2545 12.7005 2.81739C12.8892 2.56052 13.0957 2.30564 13.3292 2.15236C12.9909 2.92979 12.1705 3.73277 11.7007 4.30867Z" fill="#40434E"/>
</svg>
