<svg width="28" height="22" viewBox="0 0 28 22" fill="none" xmlns="http://www.w3.org/2000/svg">
<path d="M27.423 2.95618C27.4057 2.87443 27.3694 2.79553 27.2855 2.72854C26.5208 2.11375 24.7129 -0.36528 23.5255 0.0457158C21.8692 0.619634 12.7633 12.7849 10.7447 15.466C10.0398 14.443 4.16845 6.26458 3.87384 6.44794C2.86482 7.07408 1.82337 7.6094 0.859621 8.31615C0.75173 8.39562 0.696388 8.49837 0.680176 8.60339C0.548248 8.70784 0.463836 8.88098 0.515266 9.09273C1.34261 12.5044 4.15559 15.1912 6.1647 17.8786C7.33137 19.4391 8.95811 23.3674 11.1511 21.5128C11.1886 21.4811 11.2109 21.4447 11.2355 21.4078C11.666 21.2296 12.0344 20.8827 12.4201 20.4604C14.0916 18.6325 15.5629 16.624 17.1136 14.6871C18.7711 12.6163 20.6097 10.6777 22.4304 8.76575C24.0203 7.09622 25.4324 4.8857 27.3062 3.58005C27.5399 3.41599 27.5404 3.14521 27.423 2.95618ZM5.77953 8.97635C5.25406 8.50461 4.70958 8.04594 4.14105 7.60429C4.75374 7.98974 5.29431 8.45352 5.77953 8.97635ZM3.26004 9.36805C3.14768 9.26019 3.0219 9.23805 2.9073 9.26473C2.83519 9.06037 2.77537 8.85487 2.74295 8.65108C2.72171 8.51937 2.65798 8.4223 2.57525 8.35702C2.60879 8.33148 2.64009 8.30593 2.67475 8.28095C2.6809 8.37575 2.71444 8.47056 2.78544 8.55684C4.05497 10.0822 5.48549 11.4435 6.77626 12.9484C6.9244 13.1215 7.06919 13.2963 7.21453 13.4701C5.84326 12.1508 4.63411 10.6799 3.26004 9.36805ZM8.40412 19.5521C8.53214 19.702 8.65959 19.8524 8.7904 19.9994C8.9419 20.2095 9.09507 20.4195 9.25327 20.6267C9.25383 20.629 9.25439 20.6318 9.25495 20.6335C8.94469 20.3497 8.65959 19.9489 8.40412 19.5521ZM8.815 16.2261C9.19122 16.5633 9.58477 16.8846 9.99844 17.1423C9.98838 17.2093 9.99341 17.2746 10.0096 17.3376C10.0147 17.3654 10.0258 17.3932 10.0365 17.4205C9.64123 17.0118 9.22923 16.6184 8.815 16.2261ZM10.6447 20.6091C10.6435 20.6051 10.6441 20.6012 10.6424 20.5983C10.629 20.5671 10.6134 20.5393 10.5999 20.5086C10.9834 20.5041 11.4854 20.2151 12.0366 19.765C11.5497 20.2316 11.0684 20.5603 10.6447 20.6091ZM23.7061 1.13565C23.3483 1.29403 23.0504 1.53813 22.7837 1.8248C23.0476 1.44219 23.3271 1.14814 23.7061 1.13565ZM14.8541 12.9081C14.6405 13.1357 14.2582 13.4803 13.797 13.9026C14.2045 13.4888 14.6271 13.0954 15.0067 12.7026C16.2449 11.4242 17.2036 9.85625 18.2031 8.35759C19.3368 7.22792 20.5113 6.15275 21.5947 4.96517C22.3074 4.18292 22.7463 2.92893 23.5798 2.26078C23.0241 2.8557 22.5853 3.71516 22.2107 4.54112C21.6165 5.17692 21.091 5.89559 20.5398 6.59156C18.7896 8.80435 16.7765 10.8593 14.8541 12.9081ZM22.1755 7.61734C21.2939 8.70217 20.3045 9.68992 19.3637 10.7208C20.0736 9.81708 20.7785 8.9088 21.4259 7.9517C21.4767 7.8762 21.5382 7.77005 21.6059 7.64005C21.8334 7.40901 22.0609 7.17853 22.284 6.94351C22.9302 6.26004 23.6983 5.509 24.1695 4.63479C24.5458 4.12104 24.9578 3.61127 25.4234 3.30473C24.7487 4.85959 23.1124 6.46553 22.1755 7.61734Z" fill="#3E8989"/>
</svg>
