<svg width="18" height="18" viewBox="0 0 18 18" fill="none" xmlns="http://www.w3.org/2000/svg">
<circle r="8.5" transform="matrix(-1 0 0 1 8.53857 9)" fill="#3E8989"/>
<path d="M7.91326 12.5V7.16H9.16326V12.5H7.91326ZM8.54326 6.28C8.30993 6.28 8.1166 6.20667 7.96326 6.06C7.8166 5.91333 7.74326 5.73667 7.74326 5.53C7.74326 5.31667 7.8166 5.14 7.96326 5C8.1166 4.85333 8.30993 4.78 8.54326 4.78C8.7766 4.78 8.9666 4.85 9.11326 4.99C9.2666 5.12333 9.34326 5.29333 9.34326 5.5C9.34326 5.72 9.26993 5.90667 9.12326 6.06C8.9766 6.20667 8.78326 6.28 8.54326 6.28Z" fill="white"/>
</svg>
