<svg width="63" height="107" viewBox="0 0 63 107" fill="none" xmlns="http://www.w3.org/2000/svg">
<path d="M0.114067 104.801C0.087664 105.416 0.56554 105.937 1.18138 105.963L11.2175 106.39C11.8333 106.417 12.354 105.939 12.3804 105.323C12.4068 104.708 11.929 104.187 11.3131 104.161L2.3921 103.781L2.77458 94.864C2.801 94.2484 2.32313 93.7281 1.70729 93.7018C1.0914 93.6756 0.57075 94.1534 0.544333 94.769L0.114067 104.801ZM21.9853 83.7519L22.8211 84.491C22.8386 84.4713 22.8553 84.451 22.8713 84.4301L21.9853 83.7519ZM38.7771 50.0988L37.6984 49.8121L37.6984 49.8122L38.7771 50.0988ZM38.2881 24.878L37.5075 25.6756L37.5076 25.6761L38.2881 24.878ZM29.7627 40.1991L28.6709 40.431L28.6712 40.4327L29.7627 40.1991ZM45.9941 39.8305L46.8849 40.5025L45.9941 39.8305ZM62.1893 1.59317C62.3142 0.989733 61.9265 0.39889 61.3228 0.274212C60.7192 0.149533 60.1287 0.537607 60.0032 1.14119L62.1893 1.59317ZM1.9839 105.67C5.22445 102.696 14.2629 94.1607 22.8211 84.491L21.1494 83.0128C12.6628 92.6014 3.68669 101.079 0.474503 104.026L1.9839 105.67ZM22.8713 84.4301C30.4267 74.5699 36.657 62.4021 39.8552 50.3855L37.6984 49.8122C34.5818 61.5206 28.492 73.4257 21.0993 83.0737L22.8713 84.4301ZM39.8552 50.3856C40.6686 47.3318 41.9164 42.2571 42.273 37.2593C42.4509 34.7602 42.4102 32.2342 41.9589 29.9655C41.5088 27.7011 40.6318 25.6076 39.0682 24.0805L37.5076 25.6761C38.6369 26.7792 39.3705 28.3936 39.7697 30.4008C40.1683 32.4041 40.2164 34.7139 40.0461 37.1012C39.7058 41.8775 38.5049 46.7824 37.6984 49.8121L39.8552 50.3856ZM39.0689 24.0809C38.1244 23.1565 37.1447 22.5579 36.1255 22.3812C35.067 22.1976 34.1152 22.4948 33.321 23.0714C31.8344 24.1518 30.8258 26.2613 30.1323 28.4019C29.418 30.6093 28.9559 33.1199 28.7177 35.2915C28.4847 37.4179 28.4475 39.3792 28.6709 40.431L30.8545 39.9672C30.7118 39.2951 30.7052 37.6464 30.937 35.5342C31.1635 33.4685 31.6002 31.1137 32.2564 29.0882C32.934 26.9963 33.7675 25.5054 34.6332 24.8762C35.0147 24.5989 35.3665 24.5145 35.7434 24.5798C36.1597 24.6519 36.7479 24.9326 37.5075 25.6756L39.0689 24.0809ZM28.6712 40.4327C29.2478 43.1338 30.373 45.0279 31.9664 46.1267C33.5659 47.2298 35.4521 47.4041 37.2808 47.0438C40.8749 46.3356 44.6113 43.5106 46.8849 40.5025L45.1038 39.1578C43.0519 41.872 39.7511 44.2828 36.8496 44.8546C35.431 45.1343 34.2048 44.9592 33.2345 44.29C32.258 43.6168 31.3559 42.316 30.8542 39.9661L28.6712 40.4327ZM46.8849 40.5025C55.3134 29.3393 59.448 14.8337 62.1893 1.59317L60.0032 1.14119C57.274 14.3254 53.2158 28.4131 45.1034 39.1585L46.8849 40.5025Z" fill="#10B981"/>
</svg>
