<svg width="55" height="145" viewBox="0 0 55 145" fill="none" xmlns="http://www.w3.org/2000/svg">
<path d="M43.4166 144.53C43.9352 145.083 44.804 145.111 45.3573 144.592L54.3728 136.136C54.926 135.617 54.9541 134.748 54.4356 134.195C53.9171 133.642 53.0482 133.614 52.495 134.133L44.4812 141.65L36.9701 133.637C36.4516 133.084 35.5828 133.056 35.0295 133.575C34.4763 134.094 34.4482 134.963 34.9667 135.516L43.4166 144.53ZM43.7375 107.18L45.1069 107.081C45.1046 107.049 45.1012 107.017 45.0966 106.985L43.7375 107.18ZM28.6035 63.4457L27.4228 64.1473L27.4229 64.1474L28.6035 63.4457ZM6.00731 42.1642L6.03661 43.5373L6.0372 43.5376L6.00731 42.1642ZM12.1392 62.8494L11.4032 64.009L11.4049 64.0101L12.1392 62.8494ZM25.788 48.2607L27.1456 48.056L25.788 48.2607ZM6.10974 1.10447C5.68668 0.475198 4.83344 0.307448 4.20415 0.730893C3.57485 1.15435 3.40771 2.00762 3.83044 2.63749L6.10974 1.10447ZM45.7906 143.635C45.9657 138.225 46.2414 122.93 45.1069 107.081L42.3681 107.279C43.4931 122.995 43.2198 138.185 43.0462 143.547L45.7906 143.635ZM45.0966 106.985C42.9311 91.8538 37.596 75.9011 29.7837 62.7446L27.4229 64.1474C35.0345 76.9669 40.2595 92.5698 42.3784 107.375L45.0966 106.985ZM29.7838 62.7446C27.7989 59.4006 24.4112 53.935 20.3239 49.319C18.2798 47.0112 16.0238 44.8725 13.6405 43.3163C11.262 41.7628 8.66645 40.7317 5.97767 40.7918L6.0372 43.5376C7.97916 43.4942 10.0302 44.239 12.1386 45.6159C14.2432 46.9899 16.3155 48.936 18.2679 51.141C22.1745 55.5519 25.4533 60.83 27.4228 64.1473L29.7838 62.7446ZM5.97861 40.7916C4.35275 40.8262 2.98314 41.1724 1.95034 41.9163C0.877705 42.689 0.319699 43.7816 0.142998 44.9763C-0.18687 47.2134 0.799675 49.9162 2.0848 52.3687C3.41073 54.897 5.22032 57.4646 6.92471 59.5434C8.59372 61.5788 10.2861 63.2999 11.4032 64.009L12.8751 61.6898C12.1614 61.2367 10.7062 59.8231 9.04853 57.8011C7.42724 55.8237 5.7328 53.4126 4.51675 51.092C3.26082 48.6953 2.66745 46.679 2.85936 45.3763C2.9441 44.8021 3.17268 44.4201 3.55456 44.145C3.9763 43.8411 4.7295 43.5655 6.03661 43.5373L5.97861 40.7916ZM11.4049 64.0101C14.2763 65.8285 16.9103 66.4697 19.2481 66.0145C21.5949 65.5578 23.3719 64.0494 24.6293 62.1314C27.1007 58.3617 27.8333 52.6445 27.1456 48.056L24.43 48.4644C25.0502 52.605 24.3283 57.5826 22.3333 60.626C21.358 62.114 20.1485 63.0414 18.7249 63.3185C17.2923 63.5975 15.372 63.2709 12.874 61.689L11.4049 64.0101ZM27.1456 48.056C24.5862 31.0353 15.3916 14.9129 6.10974 1.10447L3.83044 2.63749C13.0731 16.3868 21.9662 32.0824 24.4303 48.4654L27.1456 48.056Z" fill="#3E8989"/>
</svg>
