<svg width="31" height="28" viewBox="0 0 31 28" fill="none" xmlns="http://www.w3.org/2000/svg">
<path d="M21.2259 27.5082V17.2363H25.0483L25.6201 13.2431H21.2259V10.6951C21.2259 9.53901 21.5831 8.75011 23.4247 8.75011H25.7742V5.17868C24.6368 5.07007 23.4936 5.0174 22.3499 5.02091C18.9633 5.02091 16.6449 6.88182 16.6449 10.2999V13.2431H12.8143V17.2363H16.6449V27.5082H2.54467C2.11013 27.5082 1.69339 27.3528 1.38613 27.0763C1.07887 26.7998 0.90625 26.4247 0.90625 26.0336V2.4404C0.90625 2.04931 1.07887 1.67425 1.38613 1.39771C1.69339 1.12118 2.11013 0.96582 2.54467 0.96582H28.7594C29.1939 0.96582 29.6106 1.12118 29.9179 1.39771C30.2252 1.67425 30.3978 2.04931 30.3978 2.4404V26.0336C30.3978 26.4247 30.2252 26.7998 29.9179 27.0763C29.6106 27.3528 29.1939 27.5082 28.7594 27.5082H21.2259Z" fill="#3E8989"/>
</svg>
