<svg width="27" height="26" viewBox="0 0 27 26" fill="none" xmlns="http://www.w3.org/2000/svg">
<path d="M0 0H20.5779C21.9947 0 23.1429 1.1674 23.1429 2.587V23.413C23.1429 24.8417 21.9947 26 20.5779 26H0V0ZM5.14286 2.6H2.57143V23.4H5.14286V2.6ZM7.71429 23.4H20.5714V2.6H7.71429V23.4ZM10.2857 18.2C10.2857 17.1657 10.6921 16.1737 11.4154 15.4423C12.1388 14.7109 13.1199 14.3 14.1429 14.3C15.1658 14.3 16.1469 14.7109 16.8703 15.4423C17.5936 16.1737 18 17.1657 18 18.2H10.2857ZM14.1429 13C13.4609 13 12.8068 12.7261 12.3246 12.2385C11.8423 11.7509 11.5714 11.0896 11.5714 10.4C11.5714 9.71044 11.8423 9.04912 12.3246 8.56152C12.8068 8.07393 13.4609 7.8 14.1429 7.8C14.8248 7.8 15.4789 8.07393 15.9611 8.56152C16.4434 9.04912 16.7143 9.71044 16.7143 10.4C16.7143 11.0896 16.4434 11.7509 15.9611 12.2385C15.4789 12.7261 14.8248 13 14.1429 13ZM24.4286 5.2H27V10.4H24.4286V5.2ZM24.4286 13H27V18.2H24.4286V13Z" fill="#40434E"/>
</svg>
