<svg width="38" height="61" viewBox="0 0 38 61" fill="none" xmlns="http://www.w3.org/2000/svg">
<path d="M0.71223 60.0473C0.700424 60.389 0.988646 60.6612 1.35596 60.6554L7.34192 60.5607C7.70924 60.5549 8.01658 60.2733 8.02839 59.9317C8.0402 59.5901 7.75201 59.3178 7.38466 59.3236L2.06381 59.4078L2.23484 54.4594C2.24665 54.1178 1.95843 53.8456 1.59112 53.8514C1.22377 53.8572 0.916433 54.1389 0.904619 54.4805L0.71223 60.0473ZM13.6167 47.6746L14.1197 48.0561C14.13 48.0446 14.1398 48.0329 14.1492 48.0208L13.6167 47.6746ZM23.4123 28.4929L22.7674 28.3699L22.7674 28.3699L23.4123 28.4929ZM22.9596 14.5491L22.4993 15.0164L22.4994 15.0167L22.9596 14.5491ZM17.9749 23.3109L17.3255 23.4753L17.3257 23.4762L17.9749 23.3109ZM27.6493 22.5711L28.1846 22.9137L27.6493 22.5711ZM37.06 0.871719C37.1306 0.533585 36.8957 0.219347 36.535 0.170264C36.1743 0.121181 35.8247 0.355476 35.7538 0.693707L37.06 0.871719ZM1.83252 60.4668C3.74544 58.7139 9.07931 53.6909 14.1197 48.0561L13.1136 47.2931C8.11544 52.8806 2.81833 57.8693 0.922162 59.6069L1.83252 60.4668ZM14.1492 48.0208C18.5905 42.3136 22.227 35.3729 24.0569 28.6161L22.7674 28.3699C20.9842 34.9535 17.4298 41.7441 13.0841 47.3284L14.1492 48.0208ZM24.0569 28.6161C24.5223 26.8989 25.2338 24.0489 25.4144 21.2707C25.5045 19.8816 25.4641 18.4848 25.1806 17.2439C24.8977 16.0054 24.3615 14.8756 23.4196 14.0819L22.4994 15.0167C23.1797 15.5899 23.6274 16.4593 23.8782 17.5571C24.1287 18.6528 24.1721 19.9297 24.0858 21.2568C23.9134 23.9117 23.2289 26.6662 22.7674 28.3699L24.0569 28.6161ZM23.42 14.0821C22.851 13.6016 22.2631 13.3027 21.6544 13.2385C21.0221 13.1718 20.4566 13.3677 19.9868 13.7131C19.1075 14.3602 18.5197 15.5611 18.1199 16.7689C17.7082 18.0143 17.4487 19.4191 17.3206 20.629C17.1953 21.8137 17.1856 22.9005 17.3255 23.4753L18.6243 23.1465C18.535 22.7792 18.5205 21.8669 18.6452 20.6901C18.767 19.5392 19.0124 18.2214 19.3906 17.0786C19.7812 15.8984 20.2686 15.0456 20.7806 14.6687C21.0063 14.5027 21.2155 14.4444 21.4406 14.4681C21.6892 14.4942 22.0418 14.6302 22.4993 15.0164L23.42 14.0821ZM17.3257 23.4762C17.6867 24.9523 18.3696 25.9636 19.3266 26.5192C20.2873 27.077 21.4129 27.1111 22.5008 26.8514C24.6389 26.3408 26.8484 24.6537 28.1846 22.9137L27.1142 22.2281C25.9083 23.7982 23.9558 25.2416 22.2297 25.6539C21.3858 25.8555 20.6536 25.7991 20.0709 25.4607C19.4844 25.1203 18.9383 24.4301 18.6242 23.1459L17.3257 23.4762ZM28.1846 22.9137C33.1381 16.4565 35.5103 8.29101 37.06 0.871719L35.7538 0.693707C34.211 8.0814 31.8817 16.0131 27.114 22.2285L28.1846 22.9137Z" fill="#34D399"/>
</svg>
