<svg width="32" height="63" viewBox="0 0 32 63" fill="none" xmlns="http://www.w3.org/2000/svg">
<path d="M4.90579 61.935C4.64682 62.1366 4.27283 62.0658 4.07044 61.777L0.77229 57.0696C0.569903 56.7807 0.615757 56.3831 0.874708 56.1815C1.13366 55.9799 1.50766 56.0507 1.71006 56.3395L4.64173 60.5239L8.39273 57.6036C8.65167 57.402 9.02567 57.4728 9.22805 57.7616C9.43045 58.0505 9.38459 58.4481 9.12565 58.6497L4.90579 61.935ZM7.25679 44.9326L6.67682 44.7564C6.67995 44.7419 6.68357 44.7276 6.68766 44.7135L7.25679 44.9326ZM16.6528 26.5119L17.1118 26.944L17.1117 26.9441L16.6528 26.5119ZM27.7491 19.0097L27.6451 19.6308L27.6448 19.6309L27.7491 19.0097ZM23.7445 27.8206L23.9825 28.4181L23.9817 28.4185L23.7445 27.8206ZM18.8704 19.8821L18.3026 19.6589L18.8704 19.8821ZM30.4408 0.34264C30.6639 0.0972916 31.0406 0.102927 31.2819 0.355715C31.5232 0.608504 31.538 1.01226 31.3149 1.25791L30.4408 0.34264ZM3.94864 61.3002C4.23403 58.8256 5.13494 51.8492 6.67682 44.7564L7.83677 45.1088C6.30783 52.1422 5.41286 59.0707 5.12999 61.5237L3.94864 61.3002ZM6.68766 44.7135C8.6233 38.0458 11.9713 31.3089 16.194 26.0801L17.1117 26.9441C12.9974 32.0389 9.71989 38.6274 7.82591 45.1517L6.68766 44.7135ZM16.194 26.0802C17.2669 24.7511 19.0821 22.5926 21.1403 20.8873C22.1696 20.0347 23.2784 19.2793 24.4029 18.8009C25.5251 18.3232 26.7056 18.1037 27.8532 18.389L27.6448 19.6309C26.8159 19.4249 25.8878 19.5665 24.8929 19.9899C23.9 20.4123 22.8827 21.0978 21.8996 21.9124C19.9324 23.5419 18.1764 25.6256 17.1118 26.944L16.194 26.0802ZM27.8528 18.3888C28.5469 18.5605 29.1105 18.8492 29.5033 19.2863C29.9112 19.7403 30.0775 20.2903 30.0735 20.8502C30.0658 21.8983 29.4632 23.0318 28.7493 24.0229C28.0129 25.0446 27.0668 26.0376 26.1983 26.8187C25.3478 27.5834 24.5082 28.2031 23.9825 28.4181L23.5066 27.2231C23.8425 27.0857 24.56 26.583 25.4047 25.8233C26.2308 25.0803 27.1172 24.1472 27.7927 23.2094C28.4903 22.2409 28.8788 21.3817 28.8834 20.7713C28.8854 20.5023 28.8129 20.3068 28.6677 20.1451C28.5073 19.9665 28.203 19.769 27.6451 19.6308L27.8528 18.3888ZM23.9817 28.4185C22.6307 28.9693 21.4598 29.0079 20.4888 28.5768C19.514 28.1441 18.8534 27.2882 18.4426 26.296C17.6352 24.346 17.7023 21.6779 18.3026 19.6589L19.4385 20.105C18.897 21.9269 18.8746 24.258 19.5263 25.8323C19.8449 26.602 20.3012 27.1394 20.8925 27.4019C21.4875 27.6661 22.3318 27.702 23.5071 27.2229L23.9817 28.4185ZM18.3026 19.6589C20.5328 12.1703 25.5452 5.72659 30.4408 0.34264L31.3149 1.25791C26.4401 6.61876 21.5853 12.8975 19.4383 20.1054L18.3026 19.6589Z" fill="#34D399"/>
</svg>
