<svg width="73" height="121" viewBox="0 0 73 121" fill="none" xmlns="http://www.w3.org/2000/svg">
<path d="M0.256759 119.388C0.233287 120.067 0.806336 120.609 1.53664 120.597L13.4381 120.409C14.1684 120.397 14.7794 119.837 14.8029 119.158C14.8264 118.479 14.2534 117.938 13.523 117.949L2.944 118.116L3.28404 108.278C3.30753 107.599 2.73449 107.058 2.00419 107.069C1.27382 107.081 0.662762 107.641 0.639272 108.32L0.256759 119.388ZM25.9137 94.7883L26.9138 95.5468C26.9342 95.524 26.9538 95.5006 26.9725 95.4766L25.9137 94.7883ZM45.3896 56.6508L44.1074 56.4062L44.1075 56.4063L45.3896 56.6508ZM44.4895 28.9274L43.5743 29.8564L43.5745 29.857L44.4895 28.9274ZM34.5789 46.3479L33.2877 46.6747L33.2881 46.6765L34.5789 46.3479ZM53.8137 44.8769L54.878 45.558L53.8137 44.8769ZM72.5242 1.7337C72.6646 1.06142 72.1975 0.43665 71.4804 0.339054C70.7633 0.241468 70.0682 0.707296 69.9272 1.37978L72.5242 1.7337ZM2.48416 120.222C6.28746 116.737 16.8924 106.75 26.9138 95.5468L24.9135 94.0298C14.976 105.139 4.44416 115.058 0.674152 118.512L2.48416 120.222ZM26.9725 95.4766C35.8027 84.1295 43.033 70.3298 46.6712 56.8956L44.1075 56.4063C40.562 69.496 33.4949 82.9972 24.8548 94.1L26.9725 95.4766ZM46.6712 56.8957C47.5965 53.4816 49.011 47.8151 49.3702 42.2915C49.5494 39.5296 49.4691 36.7524 48.9053 34.2853C48.3429 31.8229 47.2768 29.5766 45.404 27.9986L43.5745 29.857C44.9271 30.9967 45.8172 32.7253 46.3158 34.908C46.8139 37.0865 46.9002 39.6253 46.7286 42.2637C46.386 47.5424 45.0249 53.019 44.1074 56.4062L46.6712 56.8957ZM45.4048 27.999C44.2736 27.0436 43.1047 26.4492 41.8944 26.3216C40.6374 26.1891 39.5131 26.5786 38.579 27.2653C36.8306 28.5518 35.6619 30.9395 34.8671 33.3408C34.0485 35.8169 33.5326 38.6101 33.2779 41.0157C33.0288 43.371 33.0096 45.5319 33.2877 46.6747L35.8701 46.021C35.6924 45.2907 35.6637 43.4768 35.9115 41.1371C36.1537 38.8489 36.6415 36.2288 37.3935 33.9567C38.1702 31.61 39.1392 29.9146 40.1572 29.1653C40.606 28.8351 41.0219 28.7191 41.4694 28.7663C41.9638 28.8183 42.6646 29.0886 43.5743 29.8564L45.4048 27.999ZM33.2881 46.6765C34.0058 49.6113 35.3637 51.622 37.2663 52.7266C39.1763 53.8356 41.4143 53.9035 43.5772 53.387C47.8284 52.3718 52.2213 49.0176 54.878 45.558L52.7498 44.195C50.3522 47.3167 46.4702 50.1864 43.0383 51.0062C41.3603 51.407 39.9048 51.2949 38.7461 50.6221C37.5801 49.9452 36.4942 48.573 35.8698 46.0198L33.2881 46.6765ZM54.878 45.558C64.7267 32.7196 69.4431 16.4849 72.5242 1.7337L69.9272 1.37978C66.8597 16.0682 62.2286 31.8381 52.7493 44.1958L54.878 45.558Z" fill="#34D399"/>
</svg>
