<svg width="61" height="53" viewBox="0 0 61 53" fill="none" xmlns="http://www.w3.org/2000/svg">
<path d="M2.68042 52.1377C2.31409 52.2191 1.96244 51.9626 1.89497 51.5651L0.795443 45.0858C0.727967 44.6882 0.970223 44.3 1.33654 44.2186C1.70285 44.1373 2.05452 44.3937 2.12199 44.7913L3.09933 50.5507L8.40548 49.3727C8.77177 49.2914 9.12342 49.5478 9.1909 49.9454C9.25837 50.343 9.0161 50.7312 8.6498 50.8126L2.68042 52.1377ZM13.443 35.7269L12.9303 35.2606C12.9406 35.2472 12.9513 35.2342 12.9625 35.2217L13.443 35.7269ZM32.1782 21.3044L32.4404 21.9757L32.4404 21.9757L32.1782 21.3044ZM47.3178 18.9938L46.9059 19.5843L46.9055 19.5843L47.3178 18.9938ZM38.8623 26.1323L38.8153 26.8662L38.8143 26.8662L38.8623 26.1323ZM37.7187 15.5429L37.2415 15.0339L37.7187 15.5429ZM59.2483 1.03034C59.5991 0.886275 59.9853 1.07671 60.1107 1.45613C60.2361 1.83555 60.0534 2.25985 59.7026 2.40428L59.2483 1.03034ZM2.00284 51.0129C3.51064 48.5965 7.86087 41.8316 12.9303 35.2606L13.9557 36.1933C8.92882 42.7092 4.60821 49.4275 3.11364 51.8227L2.00284 51.0129ZM12.9625 35.2217C18.2303 29.2828 24.9909 23.9647 31.9159 20.6334L32.4404 21.9757C25.6931 25.2218 19.0779 30.4212 13.9235 36.2322L12.9625 35.2217ZM31.9158 20.6334C33.6756 19.7864 36.6087 18.4465 39.5707 17.6938C41.0518 17.3176 42.5675 17.0808 43.9636 17.1378C45.357 17.1944 46.6839 17.5463 47.7296 18.4036L46.9055 19.5843C46.1503 18.9652 45.1222 18.6565 43.887 18.6063C42.6542 18.5559 41.2674 18.7654 39.8525 19.1249C37.0218 19.8439 34.1864 21.1356 32.4404 21.9757L31.9158 20.6334ZM47.7293 18.4031C48.3621 18.9208 48.8028 19.4952 48.9943 20.1393C49.1931 20.8083 49.0952 21.4579 48.8168 22.0342C48.295 23.1132 47.1169 23.9887 45.8937 24.6626C44.6323 25.357 43.1681 25.919 41.8881 26.3001C40.6347 26.6732 39.4637 26.9018 38.8153 26.8662L38.9094 25.3985C39.3237 25.4212 40.3113 25.2536 41.5563 24.8828C42.7739 24.5203 44.1469 23.991 45.3043 23.3534C46.4996 22.6949 47.3221 21.9977 47.6261 21.3694C47.76 21.0925 47.7809 20.855 47.7102 20.6168C47.632 20.3538 47.4145 20.0006 46.9059 19.5843L47.7293 18.4031ZM38.8143 26.8662C37.1487 26.7729 35.9202 26.2389 35.1285 25.3176C34.3337 24.3928 34.0708 23.1849 34.1328 21.9586C34.2546 19.5485 35.6318 16.8253 37.2415 15.0339L38.1962 16.0515C36.7438 17.6682 35.5781 20.0651 35.4796 22.0108C35.4314 22.9621 35.6393 23.7409 36.1214 24.3018C36.6066 24.8665 37.4611 25.3173 38.9101 25.3985L38.8143 26.8662ZM37.2415 15.0339C43.2159 8.39157 51.5522 4.19221 59.2483 1.03034L59.7026 2.40428C52.0393 5.55244 43.9467 9.65858 38.1958 16.0518L37.2415 15.0339Z" fill="#34D399"/>
</svg>
