<svg width="18" height="18" viewBox="0 0 18 18" fill="none" xmlns="http://www.w3.org/2000/svg">
<path d="M12.402 17.5V10.921H14.735L15.084 8.36344H12.402V6.73144C12.402 5.991 12.62 5.48572 13.744 5.48572H15.178V3.19828C14.4838 3.12871 13.7861 3.09498 13.088 3.09722C11.021 3.09722 9.606 4.28911 9.606 6.47833V8.36344H7.268V10.921H9.606V17.5H1C0.734784 17.5 0.48043 17.4005 0.292893 17.2234C0.105357 17.0463 0 16.806 0 16.5556V1.44444C0 1.19396 0.105357 0.953739 0.292893 0.776621C0.48043 0.599504 0.734784 0.5 1 0.5H17C17.2652 0.5 17.5196 0.599504 17.7071 0.776621C17.8946 0.953739 18 1.19396 18 1.44444V16.5556C18 16.806 17.8946 17.0463 17.7071 17.2234C17.5196 17.4005 17.2652 17.5 17 17.5H12.402Z" fill="#3E8989"/>
</svg>
