<svg width="30" height="27" viewBox="0 0 30 27" fill="none" xmlns="http://www.w3.org/2000/svg">
<path d="M20.7415 26.9657V16.6938H24.564L25.1358 12.7007H20.7415V10.1526C20.7415 8.99653 21.0987 8.20763 22.9403 8.20763H25.2898V4.6362C24.1524 4.52759 23.0093 4.47492 21.8655 4.47843C18.4789 4.47843 16.1605 6.33934 16.1605 9.75741V12.7007H12.3299V16.6938H16.1605V26.9657H2.06029C1.62576 26.9657 1.20902 26.8104 0.901756 26.5338C0.594493 26.2573 0.421875 25.8822 0.421875 25.4911V1.89792C0.421875 1.50683 0.594493 1.13177 0.901756 0.855233C1.20902 0.578696 1.62576 0.42334 2.06029 0.42334H28.275C28.7095 0.42334 29.1263 0.578696 29.4335 0.855233C29.7408 1.13177 29.9134 1.50683 29.9134 1.89792V25.4911C29.9134 25.8822 29.7408 26.2573 29.4335 26.5338C29.1263 26.8104 28.7095 26.9657 28.275 26.9657H20.7415Z" fill="#3E8989"/>
</svg>
