<svg width="27" height="23" viewBox="0 0 27 23" fill="none" xmlns="http://www.w3.org/2000/svg">
<path d="M17.1818 7.48674e-06C18.0437 -9.36673e-05 18.8904 0.22363 19.6369 0.648685C20.3833 1.07374 21.0031 1.68514 21.434 2.42142C21.8649 3.15769 22.0917 3.99288 22.0915 4.84302C22.0913 5.69315 21.8643 6.52826 21.4331 7.26437L27 7.26316V9.68421H24.5455V21.7895C24.5455 22.1105 24.4162 22.4184 24.186 22.6454C23.9558 22.8725 23.6437 23 23.3182 23H3.68182C3.35633 23 3.04416 22.8725 2.81401 22.6454C2.58385 22.4184 2.45455 22.1105 2.45455 21.7895V9.68421H0V7.26316L5.56691 7.26437C4.95801 6.2244 4.76266 4.99834 5.01879 3.82427C5.27491 2.6502 5.96424 1.6119 6.95291 0.910991C7.94158 0.210079 9.15905 -0.103432 10.3689 0.0313343C11.5788 0.166101 12.6947 0.739528 13.5 1.64027C13.9597 1.12384 14.5261 0.710312 15.1611 0.427417C15.7961 0.144523 16.4851 -0.00120356 17.1818 7.48674e-06ZM12.2727 9.68421H4.90909V20.5789H12.2727V9.68421ZM22.0909 9.68421H14.7273V20.5789H22.0909V9.68421ZM9.81818 2.42106C9.18125 2.41825 8.56815 2.65976 8.1084 3.09457C7.64866 3.52938 7.37828 4.12344 7.35438 4.75125C7.33048 5.37905 7.55494 5.99144 7.98033 6.45903C8.40572 6.92662 8.99874 7.2128 9.63409 7.25711L9.81818 7.26316H12.2727V4.84211C12.2728 4.26355 12.0627 3.70411 11.6807 3.26511C11.2986 2.8261 10.7698 2.53655 10.19 2.4489L10.001 2.42711L9.81818 2.42106ZM17.1818 2.42106C16.5626 2.42087 15.9661 2.65155 15.5121 3.06687C15.058 3.48219 14.7799 4.05145 14.7334 4.66053L14.7273 4.84211V7.26316H17.1818C17.8011 7.26336 18.3975 7.03267 18.8516 6.61735C19.3057 6.20203 19.5838 5.63277 19.6302 5.02369L19.6364 4.84211C19.6364 4.20001 19.3778 3.5842 18.9174 3.13017C18.4571 2.67613 17.8328 2.42106 17.1818 2.42106Z" fill="white"/>
</svg>
