<svg width="135" height="30" viewBox="0 0 135 30" fill="none" xmlns="http://www.w3.org/2000/svg">
<path d="M1.05641 26.1847C0.405271 25.9663 0.0547182 25.2613 0.273339 24.61L3.83639 13.9962C4.05502 13.3449 4.76008 12.994 5.41119 13.2123C6.0623 13.4307 6.41292 14.1357 6.19426 14.787L3.02708 24.2214L12.4586 27.3845C13.1096 27.6029 13.4602 28.3079 13.2416 28.9592C13.0229 29.6105 12.3178 29.9615 11.6667 29.7431L1.05641 26.1847ZM31.693 11.8325L31.2577 10.6676C31.2851 10.6573 31.313 10.648 31.3411 10.6397L31.693 11.8325ZM73.4164 7.79927L73.2839 9.03616L73.2838 9.03609L73.4164 7.79927ZM99.4645 18.38L98.3228 18.8738L98.3223 18.8734L99.4645 18.38ZM80.1176 21.1326L79.4402 22.1761L79.4387 22.1751L80.1176 21.1326ZM86.9831 4.39023L86.6396 3.19501L86.9831 4.39023ZM133.238 2.80847C133.916 2.91951 134.376 3.55887 134.265 4.23681C134.153 4.91475 133.514 5.37423 132.836 5.26369L133.238 2.80847ZM0.898579 23.8919C5.28691 21.7075 17.7782 15.7113 31.2577 10.6676L32.1282 12.9975C18.7617 17.9989 6.35586 23.9535 2.006 26.1188L0.898579 23.8919ZM31.3411 10.6397C44.6183 6.71568 59.7675 5.092 73.5486 6.56291L73.2838 9.03609C59.856 7.60337 45.0363 9.1858 32.0449 13.0253L31.3411 10.6397ZM73.5485 6.56287C77.051 6.93605 82.8297 7.66425 88.1725 9.28906C90.8441 10.1019 93.4562 11.153 95.6367 12.5286C97.8131 13.9013 99.6412 15.6499 100.606 17.8868L98.3223 18.8734C97.6255 17.2578 96.2386 15.8498 94.3094 14.6328C92.3841 13.4179 89.9999 12.4455 87.4477 11.6694C82.3418 10.1161 76.7586 9.40685 73.2839 9.03616L73.5485 6.56287ZM100.606 17.8859C101.19 19.2378 101.422 20.4963 101.199 21.6274C100.967 22.8021 100.278 23.6738 99.3607 24.2699C97.6429 25.3854 95.045 25.5924 92.5407 25.4592C89.9585 25.3209 87.1616 24.7992 84.8068 24.1797C82.5012 23.573 80.4455 22.8285 79.4402 22.1761L80.7949 20.0891C81.4372 20.506 83.1502 21.1712 85.4405 21.7736C87.6804 22.3629 90.3051 22.8488 92.6748 22.9749C95.1221 23.1052 97.0063 22.8333 98.0068 22.1839C98.4477 21.8975 98.676 21.5652 98.7585 21.1469C98.8497 20.685 98.7926 19.9608 98.3228 18.8738L100.606 17.8859ZM79.4387 22.1751C76.8582 20.4964 75.3367 18.5691 74.8297 16.4723C74.3206 14.3674 74.8926 12.3351 75.9977 10.5762C78.1699 7.1192 82.6016 4.35947 86.6396 3.19501L87.3275 5.58532C83.6839 6.63643 79.8572 9.10838 78.1034 11.8991C77.2459 13.2636 76.9384 14.6094 77.2472 15.8862C77.5578 17.1712 78.551 18.6294 80.7959 20.0898L79.4387 22.1751ZM86.6396 3.19501C101.621 -1.11728 118.366 0.373312 133.238 2.80847L132.836 5.26369C118.027 2.8385 101.747 1.43524 87.3267 5.58545L86.6396 3.19501Z" fill="#34D399"/>
</svg>
