<svg width="14" height="15" viewBox="0 0 14 15" fill="none" xmlns="http://www.w3.org/2000/svg">
<path d="M10.7956 9.85781L9.85291 8.91381L10.7956 7.97115C11.1073 7.66211 11.355 7.29454 11.5243 6.88954C11.6936 6.48454 11.7813 6.05009 11.7822 5.61112C11.7832 5.17216 11.6974 4.73732 11.5299 4.33159C11.3623 3.92585 11.1163 3.5572 10.8059 3.2468C10.4955 2.9364 10.1269 2.69037 9.72113 2.52283C9.3154 2.35529 8.88056 2.26954 8.4416 2.2705C8.00263 2.27146 7.56817 2.35912 7.16317 2.52843C6.75817 2.69775 6.39061 2.94539 6.08157 3.25715L5.1389 4.20048L4.19557 3.25781L5.13957 2.31515C6.01479 1.43993 7.20183 0.948242 8.43957 0.948242C9.67731 0.948242 10.8644 1.43993 11.7396 2.31515C12.6148 3.19036 13.1065 4.37741 13.1065 5.61515C13.1065 6.85289 12.6148 8.03993 11.7396 8.91515L10.7962 9.85781H10.7956ZM8.91024 11.7431L7.96691 12.6858C7.09169 13.561 5.90465 14.0527 4.66691 14.0527C3.42917 14.0527 2.24212 13.561 1.3669 12.6858C0.49169 11.8106 1.30417e-08 10.6236 0 9.38581C-1.30417e-08 8.14807 0.49169 6.96103 1.3669 6.08581L2.31024 5.14315L3.2529 6.08715L2.31024 7.02981C1.99848 7.33885 1.75084 7.70642 1.58152 8.11142C1.41221 8.51642 1.32455 8.95087 1.32359 9.38984C1.32263 9.8288 1.40838 10.2636 1.57592 10.6694C1.74346 11.0751 1.9895 11.4438 2.29989 11.7542C2.61029 12.0646 2.97894 12.3106 3.38468 12.4781C3.79041 12.6457 4.22525 12.7314 4.66421 12.7305C5.10318 12.7295 5.53764 12.6418 5.94264 12.4725C6.34763 12.3032 6.7152 12.0556 7.02424 11.7438L7.96691 10.8011L8.91024 11.7438V11.7431ZM8.43824 4.67181L9.38157 5.61515L4.66757 10.3285L3.72424 9.38581L8.43824 4.67248V4.67181Z" fill="#3E8989"/>
</svg>
