<svg width="21" height="20" viewBox="0 0 21 20" fill="none" xmlns="http://www.w3.org/2000/svg">
<path d="M15.5 2.76107H19.5C19.7652 2.76107 20.0196 2.85764 20.2071 3.02955C20.3946 3.20146 20.5 3.43462 20.5 3.67773V18.3444C20.5 18.5875 20.3946 18.8207 20.2071 18.9926C20.0196 19.1645 19.7652 19.2611 19.5 19.2611H1.5C1.23478 19.2611 0.98043 19.1645 0.792893 18.9926C0.605357 18.8207 0.5 18.5875 0.5 18.3444V3.67773C0.5 3.43462 0.605357 3.20146 0.792893 3.02955C0.98043 2.85764 1.23478 2.76107 1.5 2.76107H5.5V0.927734H7.5V2.76107H13.5V0.927734H15.5V2.76107ZM13.5 4.5944H7.5V6.42773H5.5V4.5944H2.5V8.26107H18.5V4.5944H15.5V6.42773H13.5V4.5944ZM18.5 10.0944H2.5V17.4277H18.5V10.0944Z" fill="white"/>
</svg>
