<svg width="21" height="21" viewBox="0 0 21 21" fill="none" xmlns="http://www.w3.org/2000/svg">
<path d="M10.1406 20.0837C4.61762 20.0837 0.140625 15.7932 0.140625 10.5003C0.140625 5.20745 4.61762 0.916992 10.1406 0.916992C15.6636 0.916992 20.1406 5.20745 20.1406 10.5003C20.1406 15.7932 15.6636 20.0837 10.1406 20.0837ZM10.1406 18.167C12.2624 18.167 14.2972 17.3593 15.7975 15.9215C17.2978 14.4837 18.1406 12.5337 18.1406 10.5003C18.1406 8.467 17.2978 6.51695 15.7975 5.07917C14.2972 3.64139 12.2624 2.83366 10.1406 2.83366C8.01889 2.83366 5.98406 3.64139 4.48377 5.07917C2.98348 6.51695 2.14062 8.467 2.14062 10.5003C2.14062 12.5337 2.98348 14.4837 4.48377 15.9215C5.98406 17.3593 8.01889 18.167 10.1406 18.167ZM11.1406 10.5003H15.1406V12.417H9.14062V5.70866H11.1406V10.5003Z" fill="white"/>
</svg>
