<svg width="31" height="31" viewBox="0 0 31 31" fill="none" xmlns="http://www.w3.org/2000/svg">
<path d="M15.4762 0.94873C19.4827 0.94873 19.9825 0.963476 21.5544 1.0372C23.1249 1.11093 24.1939 1.35719 25.1347 1.72288C26.1079 2.09743 26.9278 2.60468 27.7477 3.42307C28.4975 4.1602 29.0777 5.05187 29.4478 6.03602C29.8121 6.97532 30.0598 8.04587 30.1335 9.61629C30.2028 11.1882 30.222 11.6881 30.222 15.6945C30.222 19.7009 30.2072 20.2008 30.1335 21.7727C30.0598 23.3431 29.8121 24.4122 29.4478 25.353C29.0787 26.3377 28.4984 27.2295 27.7477 27.9659C27.0103 28.7155 26.1187 29.2956 25.1347 29.6661C24.1954 30.0303 23.1249 30.2781 21.5544 30.3518C19.9825 30.4211 19.4827 30.4403 15.4762 30.4403C11.4698 30.4403 10.9699 30.4255 9.39803 30.3518C7.8276 30.2781 6.75854 30.0303 5.81776 29.6661C4.83322 29.2967 3.9414 28.7164 3.20481 27.9659C2.45485 27.2289 1.87464 26.3372 1.50462 25.353C1.13893 24.4137 0.892672 23.3431 0.818943 21.7727C0.749638 20.2008 0.730469 19.7009 0.730469 15.6945C0.730469 11.6881 0.745214 11.1882 0.818943 9.61629C0.892672 8.04439 1.13893 6.9768 1.50462 6.03602C1.87361 5.05127 2.45396 4.15936 3.20481 3.42307C3.94161 2.67285 4.83337 2.0926 5.81776 1.72288C6.75854 1.35719 7.82613 1.11093 9.39803 1.0372C10.9699 0.9679 11.4698 0.94873 15.4762 0.94873ZM15.4762 8.32161C13.5208 8.32161 11.6455 9.0984 10.2628 10.4811C8.88013 11.8638 8.10335 13.7391 8.10335 15.6945C8.10335 17.6499 8.88013 19.5252 10.2628 20.9079C11.6455 22.2906 13.5208 23.0674 15.4762 23.0674C17.4316 23.0674 19.307 22.2906 20.6896 20.9079C22.0723 19.5252 22.8491 17.6499 22.8491 15.6945C22.8491 13.7391 22.0723 11.8638 20.6896 10.4811C19.307 9.0984 17.4316 8.32161 15.4762 8.32161ZM25.061 7.95297C25.061 7.46412 24.8668 6.99529 24.5211 6.64961C24.1754 6.30394 23.7066 6.10975 23.2178 6.10975C22.7289 6.10975 22.2601 6.30394 21.9144 6.64961C21.5687 6.99529 21.3745 7.46412 21.3745 7.95297C21.3745 8.44182 21.5687 8.91065 21.9144 9.25632C22.2601 9.60199 22.7289 9.79619 23.2178 9.79619C23.7066 9.79619 24.1754 9.60199 24.5211 9.25632C24.8668 8.91065 25.061 8.44182 25.061 7.95297ZM15.4762 11.2708C16.6495 11.2708 17.7747 11.7368 18.6043 12.5664C19.4339 13.3961 19.9 14.5212 19.9 15.6945C19.9 16.8677 19.4339 17.9929 18.6043 18.8225C17.7747 19.6522 16.6495 20.1182 15.4762 20.1182C14.303 20.1182 13.1778 19.6522 12.3482 18.8225C11.5186 17.9929 11.0525 16.8677 11.0525 15.6945C11.0525 14.5212 11.5186 13.3961 12.3482 12.5664C13.1778 11.7368 14.303 11.2708 15.4762 11.2708Z" fill="#3E8989"/>
</svg>
