<svg width="12" height="13" viewBox="0 0 12 13" fill="none" xmlns="http://www.w3.org/2000/svg">
<path d="M6 12.4092C2.6862 12.4092 0 9.72298 0 6.40918C0 3.09538 2.6862 0.40918 6 0.40918C9.3138 0.40918 12 3.09538 12 6.40918C12 9.72298 9.3138 12.4092 6 12.4092ZM6 11.2092C7.27304 11.2092 8.49394 10.7035 9.39411 9.80329C10.2943 8.90312 10.8 7.68222 10.8 6.40918C10.8 5.13614 10.2943 3.91524 9.39411 3.01507C8.49394 2.11489 7.27304 1.60918 6 1.60918C4.72696 1.60918 3.50606 2.11489 2.60589 3.01507C1.70571 3.91524 1.2 5.13614 1.2 6.40918C1.2 7.68222 1.70571 8.90312 2.60589 9.80329C3.50606 10.7035 4.72696 11.2092 6 11.2092ZM6.6 6.40918H9V7.60918H5.4V3.40918H6.6V6.40918Z" fill="#19C8AB"/>
</svg>
