<svg width="11" height="15" viewBox="0 0 11 15" fill="none" xmlns="http://www.w3.org/2000/svg">
<path d="M5.5 12.587L8.525 9.39756C9.12321 8.76676 9.53059 7.9631 9.69561 7.0882C9.86064 6.21329 9.7759 5.30644 9.45211 4.48231C9.12832 3.65818 8.58003 2.95379 7.87656 2.45821C7.17309 1.96263 6.34605 1.69812 5.5 1.69812C4.65395 1.69812 3.82691 1.96263 3.12344 2.45821C2.41997 2.95379 1.87168 3.65818 1.54789 4.48231C1.2241 5.30644 1.13937 6.21329 1.30439 7.0882C1.46941 7.9631 1.87679 8.76676 2.475 9.39756L5.5 12.587ZM5.5 14.4092L1.61089 10.3086C0.841709 9.49764 0.317892 8.46436 0.105678 7.33947C-0.106535 6.21458 0.00238752 5.0486 0.418671 3.98898C0.834955 2.92935 1.5399 2.02368 2.44437 1.38648C3.34884 0.749283 4.41221 0.40918 5.5 0.40918C6.58779 0.40918 7.65116 0.749283 8.55563 1.38648C9.4601 2.02368 10.165 2.92935 10.5813 3.98898C10.9976 5.0486 11.1065 6.21458 10.8943 7.33947C10.6821 8.46436 10.1583 9.49764 9.38911 10.3086L5.5 14.4092ZM5.5 7.49678C5.82415 7.49678 6.13503 7.36101 6.36424 7.11934C6.59345 6.87767 6.72222 6.54989 6.72222 6.20812C6.72222 5.86634 6.59345 5.53857 6.36424 5.2969C6.13503 5.05522 5.82415 4.91945 5.5 4.91945C5.17585 4.91945 4.86497 5.05522 4.63576 5.2969C4.40655 5.53857 4.27778 5.86634 4.27778 6.20812C4.27778 6.54989 4.40655 6.87767 4.63576 7.11934C4.86497 7.36101 5.17585 7.49678 5.5 7.49678ZM5.5 8.78545C4.85169 8.78545 4.22994 8.51391 3.77152 8.03057C3.3131 7.54722 3.05556 6.89167 3.05556 6.20812C3.05556 5.52457 3.3131 4.86902 3.77152 4.38567C4.22994 3.90233 4.85169 3.63079 5.5 3.63079C6.14831 3.63079 6.77006 3.90233 7.22848 4.38567C7.6869 4.86902 7.94444 5.52457 7.94444 6.20812C7.94444 6.89167 7.6869 7.54722 7.22848 8.03057C6.77006 8.51391 6.14831 8.78545 5.5 8.78545Z" fill="#19C8AB"/>
</svg>
