<svg width="30" height="28" viewBox="0 0 30 28" fill="none" xmlns="http://www.w3.org/2000/svg">
<path d="M25.2384 23.5846H20.872V17.4253C20.872 15.9566 20.8393 14.0662 18.5946 14.0662C16.3189 14.0662 15.9715 15.6646 15.9715 17.3176V23.5846H11.6035V10.9195H15.7979V12.6447H15.8552C16.4418 11.6508 17.8672 10.5995 19.9971 10.5995C24.4209 10.5995 25.2401 13.2213 25.2401 16.632V23.5846H25.2384ZM6.67187 9.18683C6.33854 9.18722 6.00841 9.12839 5.70039 9.01372C5.39237 8.89905 5.11253 8.7308 4.87691 8.5186C4.64129 8.30641 4.45452 8.05444 4.32731 7.77715C4.2001 7.49986 4.13495 7.2027 4.1356 6.90271C4.13592 6.45124 4.28499 6.01001 4.56395 5.63479C4.84291 5.25957 5.23923 4.96723 5.70279 4.79473C6.16636 4.62223 6.67635 4.57733 7.16828 4.66569C7.6602 4.75405 8.11197 4.97171 8.46644 5.29115C8.82092 5.61059 9.06218 6.01746 9.15973 6.46031C9.25727 6.90315 9.20671 7.36209 9.01445 7.77908C8.82219 8.19606 8.49685 8.55237 8.07958 8.80295C7.66231 9.05353 7.17186 9.18712 6.67023 9.18683H6.67187ZM8.8608 23.5846H4.4813V10.9195H8.86243V23.5846H8.8608ZM27.4257 0.966064H2.29074C1.08486 0.966064 0.113281 1.82132 0.113281 2.87859V25.5959C0.113281 26.6532 1.0865 27.5084 2.2891 27.5084H27.4192C28.6218 27.5084 29.6048 26.6532 29.6048 25.5959V2.87859C29.6048 1.82132 28.6218 0.966064 27.4192 0.966064H27.4241H27.4257Z" fill="#3E8989"/>
</svg>
