<svg width="18" height="18" viewBox="0 0 18 18" fill="none" xmlns="http://www.w3.org/2000/svg">
<path d="M15.335 14.9868H12.67V11.0419C12.67 10.1012 12.65 8.89044 11.28 8.89044C9.891 8.89044 9.679 9.91422 9.679 10.9729V14.9868H7.013V6.875H9.573V7.98H9.608C9.966 7.34344 10.836 6.67006 12.136 6.67006C14.836 6.67006 15.336 8.34928 15.336 10.5338V14.9868H15.335ZM4.003 5.76528C3.79956 5.76553 3.59806 5.72785 3.41006 5.65441C3.22207 5.58096 3.05127 5.4732 2.90746 5.33729C2.76365 5.20138 2.64965 5.04 2.57201 4.8624C2.49437 4.6848 2.4546 4.49448 2.455 4.30233C2.4552 4.01318 2.54618 3.73057 2.71644 3.49025C2.8867 3.24993 3.12859 3.06269 3.41153 2.9522C3.69447 2.84172 4.00574 2.81296 4.30598 2.86955C4.60622 2.92615 4.88196 3.06556 5.09831 3.27016C5.31466 3.47475 5.46191 3.73535 5.52145 4.01898C5.58099 4.30262 5.55013 4.59656 5.43278 4.86363C5.31543 5.13071 5.11687 5.35892 4.86219 5.51941C4.60751 5.6799 4.30817 5.76546 4.002 5.76528H4.003ZM5.339 14.9868H2.666V6.875H5.34V14.9868H5.339ZM16.67 0.5H1.329C0.593 0.5 0 1.04778 0 1.72494V16.2751C0 16.9522 0.594 17.5 1.328 17.5H16.666C17.4 17.5 18 16.9522 18 16.2751V1.72494C18 1.04778 17.4 0.5 16.666 0.5H16.669H16.67Z" fill="#3E8989"/>
</svg>
