<svg width="31" height="27" viewBox="0 0 31 27" fill="none" xmlns="http://www.w3.org/2000/svg">
<path d="M25.9415 23.0424H21.5752V16.883C21.5752 15.4144 21.5424 13.524 19.2978 13.524C17.022 13.524 16.6747 15.1224 16.6747 16.7754V23.0424H12.3066V10.3772H16.501V12.1025H16.5583C17.1449 11.1086 18.5703 10.0572 20.7002 10.0572C25.124 10.0572 25.9432 12.679 25.9432 16.0897V23.0424H25.9415ZM7.37499 8.64459C7.04167 8.64498 6.71153 8.58615 6.40352 8.47149C6.0955 8.35682 5.81566 8.18856 5.58004 7.97637C5.34441 7.76417 5.15764 7.5122 5.03043 7.23491C4.90322 6.95763 4.83808 6.66047 4.83872 6.36047C4.83905 5.90901 4.98811 5.46777 5.26707 5.09255C5.54603 4.71734 5.94235 4.42499 6.40592 4.2525C6.86949 4.08 7.37948 4.03509 7.8714 4.12345C8.36333 4.21181 8.81509 4.42948 9.16957 4.74892C9.52404 5.06836 9.76531 5.47523 9.86285 5.91807C9.96039 6.36092 9.90984 6.81985 9.71758 7.23684C9.52531 7.65383 9.19998 8.01014 8.78271 8.26072C8.36544 8.51129 7.87498 8.64488 7.37336 8.64459H7.37499ZM9.56392 23.0424H5.18443V10.3772H9.56556V23.0424H9.56392ZM28.1288 0.423828H2.99386C1.78799 0.423828 0.816406 1.27908 0.816406 2.33635V25.0537C0.816406 26.1109 1.78963 26.9662 2.99223 26.9662H28.1223C29.3249 26.9662 30.3079 26.1109 30.3079 25.0537V2.33635C30.3079 1.27908 29.3249 0.423828 28.1223 0.423828H28.1272H28.1288Z" fill="#3E8989"/>
</svg>
