<svg width="27" height="33" viewBox="0 0 27 33" fill="none" xmlns="http://www.w3.org/2000/svg">
<path d="M13.5 28.4794L20.7188 21.2606C22.1463 19.8329 23.1185 18.014 23.5123 16.0338C23.9061 14.0536 23.7038 12.0011 22.9312 10.1358C22.1585 8.27055 20.8501 6.67628 19.1713 5.55462C17.4926 4.43296 15.519 3.83428 13.5 3.83428C11.481 3.83428 9.5074 4.43296 7.82867 5.55462C6.14994 6.67628 4.84151 8.27055 4.06884 10.1358C3.29616 12.0011 3.09394 14.0536 3.48775 16.0338C3.88155 18.014 4.8537 19.8329 6.28126 21.2606L13.5 28.4794ZM13.5 32.6035L4.21917 23.3227C2.38362 21.4871 1.13361 19.1485 0.627187 16.6025C0.120769 14.0565 0.380697 11.4175 1.3741 9.01923C2.36751 6.62096 4.04977 4.57113 6.20816 3.12894C8.36655 1.68676 10.9041 0.916992 13.5 0.916992C16.0959 0.916992 18.6335 1.68676 20.7918 3.12894C22.9502 4.57113 24.6325 6.62096 25.6259 9.01923C26.6193 11.4175 26.8792 14.0565 26.3728 16.6025C25.8664 19.1485 24.6164 21.4871 22.7808 23.3227L13.5 32.6035ZM13.5 16.9585C14.2736 16.9585 15.0154 16.6513 15.5624 16.1043C16.1094 15.5573 16.4167 14.8154 16.4167 14.0419C16.4167 13.2683 16.1094 12.5265 15.5624 11.9795C15.0154 11.4325 14.2736 11.1252 13.5 11.1252C12.7265 11.1252 11.9846 11.4325 11.4376 11.9795C10.8906 12.5265 10.5833 13.2683 10.5833 14.0419C10.5833 14.8154 10.8906 15.5573 11.4376 16.1043C11.9846 16.6513 12.7265 16.9585 13.5 16.9585ZM13.5 19.8752C11.9529 19.8752 10.4692 19.2606 9.37522 18.1667C8.28125 17.0727 7.66667 15.589 7.66667 14.0419C7.66667 12.4948 8.28125 11.0111 9.37522 9.91709C10.4692 8.82313 11.9529 8.20855 13.5 8.20855C15.0471 8.20855 16.5308 8.82313 17.6248 9.91709C18.7188 11.0111 19.3333 12.4948 19.3333 14.0419C19.3333 15.589 18.7188 17.0727 17.6248 18.1667C16.5308 19.2606 15.0471 19.8752 13.5 19.8752Z" fill="#40434E"/>
</svg>
