<svg width="196" height="31" viewBox="0 0 196 31" fill="none" xmlns="http://www.w3.org/2000/svg">
<path d="M0.60675 24.184V22.456C0.60675 22.104 0.78275 21.928 1.13475 21.928H2.52675C2.87875 21.928 3.05475 22.104 3.05475 22.456V24.04C3.05475 27.24 4.60675 28.84 7.71075 28.84H12.7028C15.8068 28.84 17.3588 27.224 17.3588 23.992V21.976C17.3588 20.568 16.7828 19.464 15.6308 18.664C14.4788 17.864 13.0868 17.288 11.4548 16.936C9.82275 16.584 8.17475 16.216 6.51075 15.832C4.87875 15.448 3.48675 14.744 2.33475 13.72C1.18275 12.696 0.60675 11.32 0.60675 9.592V6.952C0.60675 4.84 1.21475 3.176 2.43075 1.96C3.64675 0.743999 5.29475 0.136 7.37475 0.136H12.9428C15.0228 0.136 16.6708 0.743999 17.8868 1.96C19.1028 3.176 19.7108 4.84 19.7108 6.952V8.296C19.7108 8.648 19.5348 8.824 19.1828 8.824H17.7908C17.4388 8.824 17.2628 8.648 17.2628 8.296V7.096C17.2628 3.896 15.7108 2.296 12.6068 2.296H7.66275C4.59075 2.296 3.05475 3.928 3.05475 7.192V9.592C3.05475 11.8 5.02275 13.288 8.95875 14.056C10.5908 14.376 12.2228 14.744 13.8548 15.16C15.5188 15.576 16.9268 16.328 18.0788 17.416C19.2308 18.504 19.8068 19.976 19.8068 21.832V24.184C19.8068 26.296 19.1988 27.96 17.9828 29.176C16.7668 30.392 15.1188 31 13.0388 31H7.37475C5.29475 31 3.64675 30.392 2.43075 29.176C1.21475 27.96 0.60675 26.296 0.60675 24.184ZM34.4719 31H33.0799C32.7279 31 32.5519 30.808 32.5519 30.424V2.728C32.5519 2.44 32.3919 2.296 32.0719 2.296H25.1119C24.7279 2.296 24.5359 2.12 24.5359 1.768V0.663999C24.5359 0.311999 24.7279 0.136 25.1119 0.136H42.3919C42.7759 0.136 42.9679 0.311999 42.9679 0.663999V1.768C42.9679 2.12 42.7759 2.296 42.3919 2.296H35.4319C35.1119 2.296 34.9519 2.44 34.9519 2.728V30.424C34.9519 30.808 34.7919 31 34.4719 31ZM63.2201 31H48.3881C48.0681 31 47.9081 30.808 47.9081 30.424V0.711998C47.9081 0.327999 48.0681 0.136 48.3881 0.136H63.2201C63.6041 0.136 63.7961 0.311999 63.7961 0.663999V1.768C63.7961 2.12 63.6041 2.296 63.2201 2.296H50.7881C50.4681 2.296 50.3081 2.44 50.3081 2.728V13.768C50.3081 14.056 50.4681 14.2 50.7881 14.2H61.8761C62.2281 14.2 62.4041 14.376 62.4041 14.728V15.832C62.4041 16.184 62.2281 16.36 61.8761 16.36H50.7881C50.4681 16.36 50.3081 16.504 50.3081 16.792V28.408C50.3081 28.696 50.4681 28.84 50.7881 28.84H63.2201C63.6041 28.84 63.7961 29.016 63.7961 29.368V30.472C63.7961 30.824 63.6041 31 63.2201 31ZM72.8895 31H71.4975C71.1775 31 71.0175 30.808 71.0175 30.424V0.711998C71.0175 0.327999 71.1775 0.136 71.4975 0.136H82.4415C84.5215 0.136 86.1695 0.743999 87.3855 1.96C88.6015 3.176 89.2095 4.84 89.2095 6.952V11.512C89.2095 13.304 88.7455 14.776 87.8175 15.928C86.9215 17.08 85.6895 17.816 84.1215 18.136V18.328L89.8335 30.424C90.0255 30.808 89.9135 31 89.4975 31H88.0095C87.5935 31 87.3055 30.808 87.1455 30.424L81.4815 18.328H73.8975C73.5775 18.328 73.4175 18.472 73.4175 18.76V30.424C73.4175 30.808 73.2415 31 72.8895 31ZM73.8975 16.264H82.2015C83.6735 16.264 84.8095 15.864 85.6095 15.064C86.4095 14.232 86.8095 13.064 86.8095 11.56V7.048C86.8095 5.544 86.4095 4.376 85.6095 3.544C84.8095 2.712 83.6735 2.296 82.2015 2.296H73.8975C73.5775 2.296 73.4175 2.44 73.4175 2.728V15.832C73.4175 16.12 73.5775 16.264 73.8975 16.264ZM99.9221 31H96.8981C96.3541 31 96.0821 30.728 96.0821 30.184V0.951998C96.0821 0.407999 96.3541 0.136 96.8981 0.136H99.9221C100.466 0.136 100.738 0.407999 100.738 0.951998V16.168H100.882C101.202 15.304 101.618 14.504 102.13 13.768L111.298 0.951998C111.65 0.407999 112.162 0.136 112.834 0.136H116.386C117.058 0.136 117.17 0.44 116.722 1.048L107.362 13.768L117.922 30.04C118.306 30.68 118.114 31 117.346 31H114.658C113.794 31 113.186 30.728 112.834 30.184L104.53 17.176L100.738 21.64V30.184C100.738 30.728 100.466 31 99.9221 31ZM124.059 31H120.603C120.155 31 119.995 30.728 120.123 30.184L128.475 0.951998C128.635 0.407999 129.019 0.136 129.627 0.136H134.427C135.067 0.136 135.451 0.407999 135.579 0.951998L143.931 30.184C144.059 30.728 143.883 31 143.403 31H139.995C139.707 31 139.499 30.952 139.371 30.856C139.275 30.728 139.195 30.504 139.131 30.184L137.307 23.944H126.747L124.923 30.184C124.795 30.728 124.507 31 124.059 31ZM131.931 4.744L127.707 20.104H136.395L132.123 4.744H131.931ZM153.86 26.92H160.628C162.932 26.92 164.084 25.736 164.084 23.368V7.768C164.084 5.4 162.932 4.216 160.628 4.216H153.86C153.508 4.216 153.332 4.376 153.332 4.696V26.392C153.332 26.744 153.508 26.92 153.86 26.92ZM148.676 30.184V0.951998C148.676 0.407999 148.948 0.136 149.492 0.136H161.3C163.636 0.136 165.46 0.791999 166.772 2.104C168.116 3.384 168.788 5.208 168.788 7.576V23.56C168.788 25.896 168.116 27.72 166.772 29.032C165.46 30.344 163.636 31 161.3 31H149.492C148.948 31 148.676 30.728 148.676 30.184ZM182.933 26.92H187.109C189.445 26.92 190.613 25.736 190.613 23.368V7.768C190.613 5.4 189.445 4.216 187.109 4.216H182.933C180.629 4.216 179.477 5.4 179.477 7.768V23.368C179.477 25.736 180.629 26.92 182.933 26.92ZM187.829 31H182.261C179.893 31 178.053 30.344 176.741 29.032C175.461 27.72 174.821 25.896 174.821 23.56V7.576C174.821 5.208 175.461 3.384 176.741 2.104C178.053 0.791999 179.893 0.136 182.261 0.136H187.829C190.197 0.136 192.037 0.791999 193.349 2.104C194.661 3.384 195.317 5.208 195.317 7.576V23.56C195.317 25.896 194.661 27.72 193.349 29.032C192.037 30.344 190.197 31 187.829 31Z" fill="#40434E"/>
</svg>
