<svg width="68" height="67" viewBox="0 0 68 67" fill="none" xmlns="http://www.w3.org/2000/svg">
<path d="M52.4186 45.5163C46.8403 54.4978 36.4528 60.953 28.0186 59.1311C19.5363 57.3062 12.9856 47.1788 12.5043 36.7698C12.0015 26.3354 17.5995 15.5492 26.4373 11.6665C35.2802 7.73594 47.4374 10.6896 53.1099 17.8948C58.7825 25.1001 57.9969 36.5347 52.4186 45.5163Z" fill="#FBBF24"/>
<path d="M23.8763 14.875H59.1263C59.6457 14.875 60.1438 15.0813 60.511 15.4486C60.8783 15.8158 61.0846 16.314 61.0846 16.8333V48.1667C61.0846 48.6861 60.8783 49.1842 60.511 49.5514C60.1438 49.9187 59.6457 50.125 59.1263 50.125H23.8763C23.3569 50.125 22.8588 49.9187 22.4915 49.5514C22.1243 49.1842 21.918 48.6861 21.918 48.1667V16.8333C21.918 16.314 22.1243 15.8158 22.4915 15.4486C22.8588 15.0813 23.3569 14.875 23.8763 14.875ZM57.168 23.1744L41.6423 37.0786L25.8346 23.1313V46.2083H57.168V23.1744ZM26.8353 18.7917L41.6208 31.8381L56.1927 18.7917H26.8353Z" fill="#40434E"/>
</svg>
