<svg width="68" height="66" viewBox="0 0 68 66" fill="none" xmlns="http://www.w3.org/2000/svg">
<path d="M52.4186 45.0124C46.8403 53.9939 36.4528 60.4491 28.0186 58.6272C19.5363 56.8023 12.9856 46.6748 12.5043 36.2659C12.0015 25.8315 17.5995 15.0453 26.4373 11.1626C35.2802 7.23203 47.4374 10.1857 53.1099 17.3909C58.7825 24.5962 57.9969 36.0308 52.4186 45.0124Z" fill="#FBBF24"/>
<path d="M20.6146 14.3711H55.8646C56.384 14.3711 56.8821 14.5774 57.2493 14.9447C57.6166 15.3119 57.8229 15.81 57.8229 16.3294V47.6628C57.8229 48.1821 57.6166 48.6803 57.2493 49.0475C56.8821 49.4148 56.384 49.6211 55.8646 49.6211H20.6146C20.0952 49.6211 19.5971 49.4148 19.2298 49.0475C18.8626 48.6803 18.6562 48.1821 18.6562 47.6628V16.3294C18.6562 15.81 18.8626 15.3119 19.2298 14.9447C19.5971 14.5774 20.0952 14.3711 20.6146 14.3711ZM53.9062 22.6705L38.3806 36.5747L22.5729 22.6274V45.7044H53.9062V22.6705ZM23.5736 18.2878L38.359 31.3342L52.931 18.2878H23.5736Z" fill="#40434E"/>
</svg>
