<svg width="41" height="37" viewBox="0 0 41 37" fill="none" xmlns="http://www.w3.org/2000/svg">
<path d="M2.87435 0.875H38.1243C38.6437 0.875 39.1418 1.08132 39.5091 1.44858C39.8764 1.81584 40.0827 2.31395 40.0827 2.83333V34.1667C40.0827 34.6861 39.8764 35.1842 39.5091 35.5514C39.1418 35.9187 38.6437 36.125 38.1243 36.125H2.87435C2.35497 36.125 1.85686 35.9187 1.4896 35.5514C1.12234 35.1842 0.916016 34.6861 0.916016 34.1667V2.83333C0.916016 2.31395 1.12234 1.81584 1.4896 1.44858C1.85686 1.08132 2.35497 0.875 2.87435 0.875ZM36.166 9.17442L20.6403 23.0786L4.83268 9.13133V32.2083H36.166V9.17442ZM5.83339 4.79167L20.6188 17.8381L35.1908 4.79167H5.83339Z" fill="#40434E"/>
</svg>
