<svg width="16" height="15" viewBox="0 0 16 15" fill="none" xmlns="http://www.w3.org/2000/svg">
<path d="M5.97687 6.40167C6.75882 7.7754 7.89648 8.91305 9.27021 9.695L10.0069 8.66333C10.1253 8.49745 10.3005 8.38073 10.4992 8.33528C10.6979 8.28982 10.9064 8.31878 11.0852 8.41667C12.2638 9.06077 13.5654 9.44815 14.9044 9.55333C15.1134 9.56989 15.3084 9.66461 15.4507 9.8186C15.5929 9.97259 15.6719 10.1745 15.6719 10.3842V14.1025C15.6719 14.3088 15.5954 14.5078 15.4572 14.661C15.3189 14.8142 15.1288 14.9106 14.9235 14.9317C14.4819 14.9775 14.0369 15 13.5885 15C6.45521 15 0.671875 9.21667 0.671875 2.08333C0.671875 1.635 0.694375 1.19 0.740208 0.748333C0.761254 0.543081 0.857695 0.352934 1.01087 0.214695C1.16404 0.076456 1.36305 -4.44648e-05 1.56938 1.93894e-08H5.28771C5.49734 -2.62654e-05 5.69929 0.0789596 5.85328 0.221209C6.00726 0.363458 6.10198 0.55852 6.11854 0.7675C6.22373 2.10649 6.6111 3.40807 7.25521 4.58667C7.3531 4.76547 7.38205 4.97395 7.3366 5.17266C7.29114 5.37137 7.17443 5.54654 7.00854 5.665L5.97687 6.40167ZM3.87521 5.85417L5.45854 4.72333C5.00919 3.75341 4.70133 2.72403 4.54437 1.66667H2.34688C2.34188 1.805 2.33937 1.94417 2.33937 2.08333C2.33854 8.29667 7.37521 13.3333 13.5885 13.3333C13.7277 13.3333 13.8669 13.3308 14.0052 13.325V11.1275C12.9478 10.9705 11.9185 10.6627 10.9485 10.2133L9.81771 11.7967C9.36243 11.6198 8.92021 11.4109 8.49437 11.1717L8.44604 11.1442C6.81152 10.2139 5.45794 8.86035 4.52771 7.22583L4.50021 7.1775C4.26096 6.75166 4.05211 6.30945 3.87521 5.85417Z" fill="#40434E"/>
</svg>
