<svg width="45" height="49" viewBox="0 0 45 49" fill="none" xmlns="http://www.w3.org/2000/svg">
<path d="M43.4114 18.3526C46.6774 28.4084 44.9111 40.5099 38.079 45.7805C31.2136 51.0858 19.2492 49.5601 10.984 43.2146C2.68558 36.8691 -1.94689 25.6344 0.785937 16.3761C3.48544 7.08324 13.5836 -0.302537 22.7485 0.00953756C31.9135 0.321613 40.1453 8.29686 43.4114 18.3526Z" fill="#9FC4C4"/>
<path d="M21.9515 16.4738C23.75 19.6334 26.3666 22.25 29.5262 24.0485L31.2205 21.6757C31.493 21.2941 31.8958 21.0257 32.3529 20.9211C32.8099 20.8166 33.2894 20.8832 33.7007 21.1083C36.4114 22.5898 39.4051 23.4807 42.4848 23.7227C42.9654 23.7608 43.414 23.9786 43.7412 24.3328C44.0684 24.6869 44.2501 25.1514 44.25 25.6336V34.1857C44.2501 34.6603 44.0742 35.118 43.7562 35.4703C43.4383 35.8226 43.0009 36.0444 42.5288 36.0928C41.513 36.1982 40.4895 36.25 39.4583 36.25C23.0517 36.25 9.75 22.9483 9.75 6.54167C9.75 5.5105 9.80175 4.487 9.90717 3.47117C9.95557 2.99909 10.1774 2.56175 10.5297 2.2438C10.882 1.92585 11.3397 1.7499 11.8143 1.75H20.3664C20.8486 1.74994 21.313 1.93161 21.6672 2.25878C22.0214 2.58595 22.2392 3.0346 22.2773 3.51525C22.5193 6.59494 23.4102 9.58855 24.8917 12.2993C25.1168 12.7106 25.1834 13.1901 25.0789 13.6471C24.9743 14.1042 24.7059 14.507 24.3243 14.7795L21.9515 16.4738V16.4738ZM17.1177 15.2146L20.7593 12.6137C19.7258 10.3828 19.0178 8.01528 18.6567 5.58333H13.6025C13.591 5.9015 13.5852 6.22158 13.5852 6.54167C13.5833 20.8323 25.1677 32.4167 39.4583 32.4167C39.7784 32.4167 40.0985 32.4109 40.4167 32.3975V27.3433C37.9847 26.9822 35.6172 26.2742 33.3863 25.2407L30.7854 28.8823C29.7383 28.4755 28.7212 27.9951 27.7417 27.4448L27.6306 27.3816C23.8712 25.242 20.758 22.1288 18.6184 18.3694L18.5552 18.2582C18.0049 17.2788 17.5245 16.2617 17.1177 15.2146V15.2146Z" fill="#40434E"/>
</svg>
