<svg width="45" height="51" viewBox="0 0 45 51" fill="none" xmlns="http://www.w3.org/2000/svg">
<path d="M43.4114 20.3526C46.6774 30.4084 44.9111 42.5099 38.079 47.7805C31.2136 53.0858 19.2492 51.5601 10.984 45.2146C2.68558 38.8691 -1.94689 27.6344 0.785937 18.3761C3.48544 9.08324 13.5836 1.69746 22.7485 2.00954C31.9135 2.32161 40.1453 10.2969 43.4114 20.3526Z" fill="#19C8AB"/>
<path d="M21.9515 14.9738C23.75 18.1334 26.3666 20.75 29.5262 22.5485L31.2205 20.1757C31.493 19.7941 31.8958 19.5257 32.3529 19.4211C32.8099 19.3166 33.2894 19.3832 33.7007 19.6083C36.4114 21.0898 39.4051 21.9807 42.4848 22.2227C42.9654 22.2608 43.414 22.4786 43.7412 22.8328C44.0684 23.1869 44.2501 23.6514 44.25 24.1336V32.6857C44.2501 33.1603 44.0742 33.618 43.7562 33.9703C43.4383 34.3226 43.0009 34.5444 42.5288 34.5928C41.513 34.6982 40.4895 34.75 39.4583 34.75C23.0517 34.75 9.75 21.4483 9.75 5.04167C9.75 4.0105 9.80175 2.987 9.90717 1.97117C9.95557 1.49909 10.1774 1.06175 10.5297 0.743798C10.882 0.425849 11.3397 0.249898 11.8143 0.25H20.3664C20.8486 0.24994 21.313 0.431607 21.6672 0.758781C22.0214 1.08595 22.2392 1.5346 22.2773 2.01525C22.5193 5.09494 23.4102 8.08855 24.8917 10.7993C25.1168 11.2106 25.1834 11.6901 25.0789 12.1471C24.9743 12.6042 24.7059 13.007 24.3243 13.2795L21.9515 14.9738V14.9738ZM17.1177 13.7146L20.7593 11.1137C19.7258 8.88285 19.0178 6.51528 18.6567 4.08333H13.6025C13.591 4.4015 13.5852 4.72158 13.5852 5.04167C13.5833 19.3323 25.1677 30.9167 39.4583 30.9167C39.7784 30.9167 40.0985 30.9109 40.4167 30.8975V25.8433C37.9847 25.4822 35.6172 24.7742 33.3863 23.7407L30.7854 27.3823C29.7383 26.9755 28.7212 26.4951 27.7417 25.9448L27.6306 25.8816C23.8712 23.742 20.758 20.6288 18.6184 16.8694L18.5552 16.7582C18.0049 15.7788 17.5245 14.7617 17.1177 13.7146V13.7146Z" fill="#40434E"/>
</svg>
