<svg width="28" height="26" viewBox="0 0 28 26" fill="none" xmlns="http://www.w3.org/2000/svg">
<path d="M5.6853 18.6667H24.668V2.66667H3.33464V20.5133L5.6853 18.6667ZM6.60797 21.3333L0.667969 26V1.33333C0.667969 0.979711 0.808444 0.640573 1.05849 0.390524C1.30854 0.140476 1.64768 0 2.0013 0H26.0013C26.3549 0 26.6941 0.140476 26.9441 0.390524C27.1942 0.640573 27.3346 0.979711 27.3346 1.33333V20C27.3346 20.3536 27.1942 20.6928 26.9441 20.9428C26.6941 21.1929 26.3549 21.3333 26.0013 21.3333H6.60797ZM12.668 14.6667H15.3346V17.3333H12.668V14.6667ZM9.42397 7.75067C9.5972 6.88372 10.0131 6.0838 10.6232 5.44397C11.2333 4.80414 12.0125 4.35072 12.8702 4.13648C13.728 3.92223 14.6289 3.95596 15.4682 4.23375C16.3075 4.51154 17.0507 5.02197 17.6112 5.70563C18.1718 6.38929 18.5267 7.21807 18.6346 8.09554C18.7425 8.97301 18.599 9.86309 18.2208 10.6622C17.8426 11.4613 17.2453 12.1366 16.4983 12.6095C15.7513 13.0823 14.8854 13.3334 14.0013 13.3333H12.668V10.6667H14.0013C14.3801 10.6666 14.7511 10.5591 15.0711 10.3564C15.3911 10.1538 15.647 9.86449 15.809 9.52211C15.971 9.17974 16.0325 8.79839 15.9862 8.42246C15.94 8.04652 15.7879 7.69145 15.5477 7.39855C15.3076 7.10565 14.9892 6.88697 14.6296 6.76796C14.27 6.64895 13.884 6.63449 13.5165 6.72627C13.1491 6.81806 12.8152 7.01231 12.5538 7.28642C12.2924 7.56054 12.1142 7.90324 12.04 8.27467L9.42397 7.75067Z" fill="#40434E"/>
</svg>
