<svg width="66" height="54" viewBox="0 0 66 54" fill="none" xmlns="http://www.w3.org/2000/svg">
<path d="M63.4133 0.772C63.8228 0.686724 64.2237 0.949678 64.3089 1.35928L65.6972 8.03447C65.7824 8.44407 65.5195 8.84526 65.1101 8.93053C64.7007 9.01581 64.2997 8.75289 64.2145 8.34325L62.9805 2.40976L57.0499 3.64498C56.6404 3.73026 56.2395 3.46731 56.1543 3.05771C56.0691 2.64807 56.332 2.24688 56.7414 2.1616L63.4133 0.772ZM51.7163 17.7322L52.3031 18.2109C52.2918 18.2248 52.28 18.2382 52.2678 18.2512L51.7163 17.7322ZM31.0192 32.6741L30.7087 31.9831L30.7088 31.9831L31.0192 32.6741ZM14.0728 35.1157L14.5213 34.5052L14.5217 34.5053L14.0728 35.1157ZM23.3987 27.7233L23.4342 26.9665L23.4353 26.9665L23.3987 27.7233ZM24.9339 38.6354L25.4819 39.1583L24.9339 38.6354ZM1.1009 53.6811C0.710432 53.831 0.272129 53.6362 0.122341 53.2455C-0.0274495 52.8549 0.167646 52.4167 0.558152 52.2665L1.1009 53.6811ZM64.2009 1.92896C62.5649 4.42595 57.8401 11.417 52.3031 18.2109L51.1294 17.2535C56.62 10.5165 61.3127 3.57355 62.9343 1.09843L64.2009 1.92896ZM52.2678 18.2512C46.493 24.3943 39.0271 29.9033 31.3296 33.3648L30.7088 31.9831C38.2089 28.6101 45.5142 23.2241 51.1647 17.2132L52.2678 18.2512ZM31.3297 33.3648C29.3735 34.2449 26.1116 35.6378 22.8032 36.4254C21.1489 36.8189 19.4525 37.069 17.8834 37.0158C16.3173 36.9629 14.8188 36.6053 13.6243 35.7257L14.5217 34.5053C15.3844 35.1406 16.5463 35.4547 17.9346 35.5016C19.3202 35.5487 20.8725 35.3273 22.4528 34.9511C25.6146 34.1988 28.768 32.856 30.7087 31.9831L31.3297 33.3648ZM13.6246 35.7261C12.9017 35.195 12.3933 34.6046 12.163 33.9413C11.9238 33.2525 12.0184 32.5824 12.3174 31.9871C12.8778 30.8728 14.18 29.9656 15.5376 29.2661C16.9377 28.5453 18.5685 27.9601 19.9969 27.5622C21.3956 27.1727 22.7052 26.9324 23.4342 26.9665L23.3633 28.48C22.8975 28.4582 21.7924 28.6348 20.4032 29.022C19.0444 29.4005 17.5152 29.9515 16.2305 30.6134C14.9038 31.297 13.9967 32.0189 13.6703 32.6678C13.5265 32.9538 13.5085 33.1987 13.5937 33.444C13.6877 33.7149 13.9403 34.0781 14.5213 34.5052L13.6246 35.7261ZM23.4353 26.9665C25.3079 27.0562 26.7001 27.6019 27.611 28.5485C28.5254 29.4987 28.8492 30.743 28.8087 32.0073C28.729 34.4924 27.247 37.3052 25.4819 39.1583L24.3856 38.113C25.9783 36.4406 27.2306 33.9651 27.2951 31.9589C27.3266 30.978 27.0748 30.176 26.52 29.5995C25.9618 29.0194 24.9916 28.5579 23.3625 28.48L23.4353 26.9665ZM25.4819 39.1583C18.9302 46.0293 9.66839 50.3912 1.1009 53.6811L0.558152 52.2665C9.08921 48.9909 18.0795 44.726 24.386 38.1126L25.4819 39.1583Z" fill="#EB5E55"/>
</svg>
