<svg width="49" height="78" viewBox="0 0 49 78" fill="none" xmlns="http://www.w3.org/2000/svg">
<path d="M43.537 0.870792C43.9129 0.631721 44.4114 0.742844 44.6505 1.11894L48.5461 7.24807C48.7851 7.62416 48.6742 8.12285 48.2983 8.36192C47.9224 8.60098 47.4239 8.4899 47.1848 8.11377L43.7221 2.66566L38.2773 6.12854C37.9014 6.3676 37.4029 6.25648 37.1638 5.88038C36.9248 5.50425 37.0357 5.00556 37.4116 4.7665L43.537 0.870792ZM38.2643 22.1733L39.0292 22.4295C39.0232 22.4475 39.0165 22.4653 39.0092 22.4829L38.2643 22.1733ZM23.2637 44.8518L22.6943 44.2801L22.6944 44.2801L23.2637 44.8518ZM7.29607 53.6625L7.51329 52.8855L7.51368 52.8854L7.29607 53.6625ZM13.8069 42.7864L13.5575 42.019L13.5586 42.0186L13.8069 42.7864ZM19.4436 53.0823L20.1863 53.397L19.4436 53.0823ZM1.35718 77.0443C1.02451 77.3407 0.514432 77.3115 0.218157 76.9786C-0.0781253 76.6457 -0.0486107 76.1357 0.283959 75.839L1.35718 77.0443ZM44.7572 1.72727C44.0668 4.83113 41.9897 13.5757 39.0292 22.4295L37.4994 21.9171C40.4351 13.1375 42.4982 4.45301 43.1825 1.37634L44.7572 1.72727ZM39.0092 22.4829C35.5668 30.7777 30.2006 39.077 23.833 45.4232L22.6944 44.2801C28.8985 38.0963 34.151 29.98 37.5193 21.8637L39.0092 22.4829ZM23.8331 45.4232C22.2151 47.0363 19.4889 49.652 16.4886 51.6819C14.9882 52.6967 13.3919 53.5843 11.8083 54.1218C10.2279 54.6585 8.60013 54.8662 7.07875 54.4392L7.51368 52.8854C8.61249 53.1937 9.88849 53.0694 11.2895 52.5938C12.6879 52.1192 14.1515 51.3144 15.5846 50.3447C18.4521 48.4051 21.0889 45.8803 22.6943 44.2801L23.8331 45.4232ZM7.07925 54.4395C6.15904 54.1823 5.43016 53.7853 4.95107 53.2111C4.4535 52.6147 4.29553 51.9114 4.36946 51.2057C4.50849 49.8844 5.4647 48.4903 6.55427 47.2823C7.67813 46.0371 9.08297 44.8403 10.3566 43.9062C11.6037 42.9916 12.8182 42.2593 13.5575 42.019L14.0564 43.5538C13.584 43.7074 12.5494 44.2993 11.3107 45.2079C10.0992 46.0964 8.78278 47.2211 7.75179 48.3641C6.687 49.5446 6.05481 50.6054 5.97374 51.3748C5.93811 51.7139 6.0124 51.9647 6.18954 52.1771C6.38516 52.4116 6.77355 52.6785 7.51329 52.8855L7.07925 54.4395ZM13.5586 42.0186C15.4583 41.4032 17.0509 41.423 18.3149 42.0235C19.5837 42.6262 20.3747 43.7441 20.8101 45.0193C21.666 47.5256 21.2478 50.8862 20.1863 53.397L18.7005 52.768C19.6582 50.5022 19.9744 47.564 19.2836 45.5407C18.9459 44.5514 18.3931 43.847 17.6233 43.4814C16.8488 43.1133 15.7083 43.0187 14.0556 43.5541L13.5586 42.0186ZM20.1863 53.397C16.2437 62.7096 8.65626 70.5417 1.35718 77.0443L0.283959 75.839C7.55211 69.3643 14.9056 61.731 18.7008 52.7675L20.1863 53.397Z" fill="#19C8AB"/>
</svg>
