<svg width="21" height="19" viewBox="0 0 21 19" fill="none" xmlns="http://www.w3.org/2000/svg">
<path d="M1.87468 0.875H19.1247C19.3789 0.875 19.6226 0.975967 19.8023 1.15569C19.9821 1.33541 20.083 1.57917 20.083 1.83333V17.1667C20.083 17.4208 19.9821 17.6646 19.8023 17.8443C19.6226 18.024 19.3789 18.125 19.1247 18.125H1.87468C1.62052 18.125 1.37676 18.024 1.19704 17.8443C1.01732 17.6646 0.916351 17.4208 0.916351 17.1667V1.83333C0.916351 1.57917 1.01732 1.33541 1.19704 1.15569C1.37676 0.975967 1.62052 0.875 1.87468 0.875ZM18.1664 4.93642L10.5687 11.7406L2.83302 4.91533V16.2083H18.1664V4.93642ZM3.32273 2.79167L10.5581 9.17608L17.6891 2.79167H3.32273Z" fill="#40434E"/>
</svg>
