<svg width="19" height="22" viewBox="0 0 19 22" fill="none" xmlns="http://www.w3.org/2000/svg">
<path d="M9.5 19.0292L14.2438 14.2854C15.1819 13.3472 15.8207 12.1519 16.0795 10.8506C16.3383 9.54937 16.2054 8.20058 15.6976 6.97483C15.1899 5.74908 14.33 4.70143 13.2269 3.96433C12.1237 3.22724 10.8268 2.83382 9.5 2.83382C8.17325 2.83382 6.87629 3.22724 5.77312 3.96433C4.66996 4.70143 3.81014 5.74908 3.30238 6.97483C2.79462 8.20058 2.66173 9.54937 2.92052 10.8506C3.17931 12.1519 3.81814 13.3472 4.75625 14.2854L9.5 19.0292ZM9.5 21.7393L3.40117 15.6405C2.19495 14.4343 1.37351 12.8974 1.04072 11.2244C0.707934 9.55128 0.878744 7.81709 1.53155 6.24108C2.18436 4.66507 3.28985 3.31804 4.70822 2.37032C6.12659 1.42259 7.79414 0.916748 9.5 0.916748C11.2059 0.916748 12.8734 1.42259 14.2918 2.37032C15.7102 3.31804 16.8156 4.66507 17.4685 6.24108C18.1213 7.81709 18.2921 9.55128 17.9593 11.2244C17.6265 12.8974 16.8051 14.4343 15.5988 15.6405L9.5 21.7393ZM9.5 11.4583C10.0083 11.4583 10.4958 11.2564 10.8553 10.897C11.2147 10.5375 11.4167 10.05 11.4167 9.54167C11.4167 9.03334 11.2147 8.54583 10.8553 8.18639C10.4958 7.82694 10.0083 7.62501 9.5 7.62501C8.99167 7.62501 8.50416 7.82694 8.14472 8.18639C7.78527 8.54583 7.58334 9.03334 7.58334 9.54167C7.58334 10.05 7.78527 10.5375 8.14472 10.897C8.50416 11.2564 8.99167 11.4583 9.5 11.4583ZM9.5 13.375C8.48334 13.375 7.50832 12.9711 6.78943 12.2522C6.07054 11.5334 5.66667 10.5583 5.66667 9.54167C5.66667 8.52501 6.07054 7.54999 6.78943 6.8311C7.50832 6.11221 8.48334 5.70834 9.5 5.70834C10.5167 5.70834 11.4917 6.11221 12.2106 6.8311C12.9295 7.54999 13.3333 8.52501 13.3333 9.54167C13.3333 10.5583 12.9295 11.5334 12.2106 12.2522C11.4917 12.9711 10.5167 13.375 9.5 13.375Z" fill="#40434E"/>
</svg>
