<svg width="16" height="14" viewBox="0 0 16 14" fill="none" xmlns="http://www.w3.org/2000/svg">
<path d="M15.9544 2.24683C15.9441 2.19853 15.9226 2.1519 15.8729 2.11232C15.4197 1.74903 14.3484 0.284153 13.6448 0.527014C12.6632 0.866147 7.26717 8.0547 6.07095 9.639C5.65322 9.03453 2.17389 4.2018 1.99931 4.31014C1.40137 4.68014 0.784218 4.99646 0.213109 5.41409C0.149174 5.46105 0.116378 5.52176 0.106771 5.58382C0.0285914 5.64554 -0.0214303 5.74785 0.00904646 5.87297C0.499326 7.88899 2.16627 9.47664 3.35686 11.0646C4.04822 11.9868 5.01221 14.308 6.31178 13.2121C6.33398 13.1934 6.34723 13.1719 6.36181 13.1501C6.61688 13.0448 6.83519 12.8398 7.06377 12.5902C8.05426 11.5101 8.92616 10.3233 9.84511 9.17877C10.8273 7.95507 11.9169 6.80953 12.9958 5.67976C13.9379 4.69322 14.7747 3.387 15.8851 2.61548C16.0236 2.51854 16.0239 2.35853 15.9544 2.24683ZM3.12861 5.80421C2.81722 5.52545 2.49456 5.25442 2.15766 4.99344C2.52073 5.22121 2.84107 5.49526 3.12861 5.80421ZM1.63558 6.03566C1.569 5.97193 1.49446 5.95885 1.42655 5.97461C1.38382 5.85385 1.34837 5.73242 1.32916 5.612C1.31657 5.53418 1.2788 5.47682 1.22978 5.43824C1.24965 5.42314 1.2682 5.40805 1.28874 5.39329C1.29239 5.44931 1.31226 5.50533 1.35433 5.55632C2.10665 6.45765 2.95437 7.26204 3.71927 8.15131C3.80705 8.25362 3.89285 8.35693 3.97898 8.45958C3.16638 7.68001 2.44984 6.81087 1.63558 6.03566ZM4.68392 12.0535C4.75978 12.1421 4.83531 12.231 4.91283 12.3178C5.00261 12.442 5.09337 12.5661 5.18712 12.6885C5.18745 12.6899 5.18779 12.6915 5.18812 12.6925C5.00426 12.5248 4.83531 12.288 4.68392 12.0535ZM4.92741 10.0882C5.15035 10.2874 5.38357 10.4773 5.62871 10.6296C5.62274 10.6691 5.62572 10.7077 5.63533 10.745C5.63831 10.7614 5.64494 10.7778 5.65123 10.7939C5.41702 10.5524 5.17288 10.3199 4.92741 10.0882ZM6.01165 12.6781C6.01099 12.6758 6.01132 12.6734 6.01033 12.6717C6.00238 12.6533 5.9931 12.6369 5.98515 12.6187C6.2124 12.6161 6.50988 12.4453 6.83651 12.1793C6.54798 12.455 6.26276 12.6493 6.01165 12.6781ZM13.7518 1.17106C13.5398 1.26465 13.3632 1.40889 13.2052 1.57829C13.3615 1.3522 13.5272 1.17844 13.7518 1.17106ZM8.50611 8.12749C8.37957 8.262 8.15298 8.46562 7.87968 8.71519C8.12118 8.47065 8.37162 8.23818 8.59655 8.00606C9.33031 7.25064 9.89844 6.32415 10.4908 5.43858C11.1626 4.77104 11.8586 4.13571 12.5006 3.43397C12.9229 2.97172 13.183 2.23073 13.6769 1.83591C13.3476 2.18746 13.0876 2.69532 12.8656 3.18339C12.5135 3.55909 12.2021 3.98376 11.8755 4.39501C10.8383 5.70257 9.64535 6.91687 8.50611 8.12749ZM12.8448 5.00116C12.3223 5.64219 11.736 6.22586 11.1785 6.83503C11.5992 6.301 12.0169 5.76429 12.4005 5.19873C12.4307 5.15412 12.4671 5.09139 12.5072 5.01457C12.642 4.87805 12.7768 4.74186 12.909 4.60299C13.292 4.19911 13.7471 3.75532 14.0264 3.23874C14.2493 2.93516 14.4935 2.63393 14.7694 2.45279C14.3696 3.37157 13.4 4.32054 12.8448 5.00116Z" fill="#40434E"/>
</svg>
