<svg width="14" height="11" viewBox="0 0 14 11" fill="none" xmlns="http://www.w3.org/2000/svg">
<path d="M8.8777 3.58061e-06C9.28287 -4.47974e-05 9.68091 0.106954 10.0318 0.310241C10.3827 0.513528 10.674 0.805937 10.8766 1.15807C11.0791 1.5102 11.1857 1.90964 11.1857 2.31623C11.1856 2.72281 11.0788 3.12221 10.8762 3.47427L13.4931 3.47369V4.63158H12.3392V10.4211C12.3392 10.5746 12.2785 10.7219 12.1703 10.8304C12.0621 10.939 11.9153 11 11.7623 11H2.53155C2.37854 11 2.2318 10.939 2.1236 10.8304C2.01541 10.7219 1.95463 10.5746 1.95463 10.4211V4.63158H0.800781V3.47369L3.4177 3.47427C3.13147 2.97688 3.03964 2.39051 3.16004 1.829C3.28044 1.26749 3.60448 0.770911 4.06924 0.435692C4.534 0.100472 5.10632 -0.0494676 5.67506 0.014986C6.2438 0.0794396 6.76838 0.353687 7.14693 0.784477C7.36305 0.537487 7.62928 0.339714 7.92778 0.204417C8.22629 0.0691196 8.55017 -0.000575617 8.8777 3.58061e-06ZM6.57001 4.63158H3.10847V9.84211H6.57001V4.63158ZM11.1854 4.63158H7.72386V9.84211H11.1854V4.63158ZM5.41617 1.1579C5.11675 1.15655 4.82854 1.27206 4.61242 1.48001C4.39631 1.68797 4.2692 1.97208 4.25797 2.27234C4.24673 2.57259 4.35225 2.86547 4.55222 3.0891C4.75219 3.31273 5.03096 3.4496 5.32963 3.47079L5.41617 3.47369H6.57001V2.31579C6.57002 2.03909 6.47129 1.77153 6.2917 1.56157C6.11211 1.35161 5.86353 1.21313 5.59097 1.17121L5.50213 1.16079L5.41617 1.1579ZM8.8777 1.1579C8.5866 1.15781 8.30622 1.26813 8.09277 1.46676C7.87932 1.6654 7.74858 1.93765 7.72674 2.22895L7.72386 2.31579V3.47369H8.8777C9.16881 3.47378 9.44919 3.36345 9.66264 3.16482C9.87609 2.96619 10.0068 2.69394 10.0287 2.40263L10.0316 2.31579C10.0316 2.0087 9.90999 1.71418 9.6936 1.49704C9.47721 1.27989 9.18372 1.1579 8.8777 1.1579Z" fill="#9FC4C4"/>
</svg>
