<svg width="201" height="69" viewBox="0 0 201 69" fill="none" xmlns="http://www.w3.org/2000/svg">
<path d="M165.594 5.33274C165.594 5.41064 163.051 4.78745 162.945 4.70956C159.767 4.00847 156.483 3.54109 153.093 3.0737C144.724 1.98313 136.143 1.90523 127.562 2.06102C93.7684 2.84 55.6311 6.9686 25.4391 20.8344C15.2691 25.5083 0.0141775 34.0771 3.5101 45.1386C4.99322 49.7346 11.1376 53.1621 15.7988 55.3432C27.134 60.6403 40.2702 63.133 53.0886 64.7689C90.9081 69.5207 135.508 67.0279 170.996 53.9411C175.658 52.2273 180.213 50.202 184.345 47.7871C187.735 45.7618 190.913 43.4248 193.455 40.6984C210.935 21.6134 173.539 9.30554 156.589 5.87803C150.763 4.70956 149.068 4.55376 143.135 3.77478" stroke="#F8BB40" stroke-width="4" stroke-miterlimit="10" stroke-linecap="round" stroke-linejoin="round"/>
</svg>
