<svg width="10" height="47" viewBox="0 0 10 47" fill="none" xmlns="http://www.w3.org/2000/svg">
<path d="M1.73159 0.264528C1.81335 0.0521719 2.06081 -0.039513 2.28432 0.0597137L5.92665 1.67686C6.15015 1.77609 6.26507 2.02868 6.18332 2.24102C6.10158 2.45337 5.85412 2.54508 5.6306 2.44584L2.39298 1.00837L1.20885 4.08427C1.12711 4.29661 0.879643 4.3883 0.656139 4.28907C0.432618 4.18983 0.317705 3.93724 0.399444 3.7249L1.73159 0.264528ZM6.41409 11.2052L6.82162 11.1026C6.82492 11.1123 6.82788 11.1221 6.83051 11.1319L6.41409 11.2052ZM7.41863 25.5074L6.9915 25.4148L6.99153 25.4147L7.41863 25.5074ZM3.50933 33.9314L3.34907 33.5252L3.3492 33.5251L3.50933 33.9314ZM2.73794 27.2656L2.38293 26.9957L2.38329 26.9952L2.73794 27.2656ZM8.47171 30.2386L8.88888 30.1682L8.47171 30.2386ZM8.58463 45.9828C8.53981 46.2083 8.31405 46.3397 8.08031 46.2758C7.84657 46.2119 7.69345 45.9773 7.73811 45.7516L8.58463 45.9828ZM2.52714 0.299383C3.2424 1.87147 5.20158 6.33785 6.82162 11.1026L6.00654 11.3079C4.40007 6.58314 2.45448 2.14734 1.74547 0.589032L2.52714 0.299383ZM6.83051 11.1319C8.06466 15.7849 8.48455 20.9839 7.84557 25.5998L6.99153 25.4147C7.61397 20.9172 7.20526 15.8314 5.99767 11.2786L6.83051 11.1319ZM7.84558 25.5998C7.68341 26.773 7.37689 28.7042 6.76394 30.4531C6.45731 31.3276 6.06873 32.1728 5.57181 32.859C5.07594 33.5441 4.45318 34.0965 3.66943 34.3374L3.3492 33.5251C3.91526 33.3511 4.41595 32.9351 4.85555 32.3279C5.2944 31.722 5.65358 30.951 5.94637 30.1156C6.53234 28.4443 6.83046 26.5786 6.9915 25.4148L7.84558 25.5998ZM3.66973 34.3374C3.19601 34.4835 2.75802 34.5135 2.36838 34.3943C1.9637 34.2704 1.66832 34.0031 1.47048 33.6692C1.10032 33.0438 1.05304 32.1549 1.12273 31.311C1.19489 30.4408 1.40188 29.5126 1.63855 28.738C1.87034 27.9797 2.14752 27.3114 2.38293 26.9957L3.09294 27.5354C2.94253 27.7371 2.69605 28.2923 2.4659 29.0456C2.24076 29.7824 2.0478 30.6536 1.98184 31.4522C1.91371 32.2769 1.99016 32.9263 2.20567 33.2905C2.30069 33.451 2.41363 33.5413 2.55771 33.5854C2.71683 33.6341 2.96818 33.6426 3.34907 33.5252L3.66973 34.3374ZM2.38329 26.9952C2.98891 26.185 3.67068 25.7433 4.40163 25.6523C5.1354 25.5608 5.83386 25.833 6.43261 26.2755C7.60946 27.1453 8.52356 28.7542 8.88888 30.1682L8.05458 30.3094C7.72481 29.0334 6.90469 27.6407 5.95467 26.9385C5.49018 26.5952 5.027 26.439 4.58188 26.4945C4.13393 26.5503 3.61958 26.8309 3.0927 27.5357L2.38329 26.9952ZM8.88888 30.1682C10.2415 35.4141 9.56782 41.0341 8.58463 45.9828L7.73811 45.7516C8.71725 40.8241 9.35629 35.3585 8.05455 30.3091L8.88888 30.1682Z" fill="#34D399"/>
</svg>
