<?xml version="1.0" encoding="utf-8"?>
<!-- Generator: Adobe Illustrator 25.0.0, SVG Export Plug-In . SVG Version: 6.00 Build 0)  -->
<svg version="1.1" id="Layer_1" xmlns="http://www.w3.org/2000/svg" xmlns:xlink="http://www.w3.org/1999/xlink" x="0px" y="0px"
	 viewBox="0 0 118 18" style="enable-background:new 0 0 118 18;" xml:space="preserve">
<style type="text/css">
	.st0{fill:#FBBF24;}
</style>
<path class="st0" d="M66.1,17.5c-1.3,0-2.4-0.6-3-1.6c-0.6-0.9-0.5-2,0-3.1c0.4-0.7,1.2-1.4,2.3-2.1c-0.7-0.4-1.7-0.9-3.1-1.4
	c-10.8-3.9-41.6-8.1-59.5-2c-1,0.4-2.2-0.2-2.5-1.2c-0.4-1,0.2-2.2,1.2-2.5c19-6.5,50.6-2.2,62.2,2c2.9,1,4.7,2.2,5.8,3.3
	C77.6,6,93,3.9,116,4.3c1.1,0,2,0.9,2,2c0,1.1-0.9,2-2,2c-25-0.4-38.4,2.1-44.7,4.2c0,0.1,0,0.2,0,0.3c-0.1,2.4-2.1,4.1-4,4.5
	C66.8,17.5,66.4,17.5,66.1,17.5z"/>
</svg>
