<?xml version="1.0" encoding="utf-8"?>
<!-- Generator: Adobe Illustrator 25.0.0, SVG Export Plug-In . SVG Version: 6.00 Build 0)  -->
<svg version="1.1" id="Layer_1" xmlns="http://www.w3.org/2000/svg" xmlns:xlink="http://www.w3.org/1999/xlink" x="0px" y="0px"
	 viewBox="0 0 32 25" style="enable-background:new 0 0 32 25;" xml:space="preserve">
<style type="text/css">
	.st0{fill:#FBBF24;}
</style>
<path class="st0" d="M30.7,4.1c0.7,2.6,0.7,8.1,0.7,8.1s0,5.5-0.7,8.1c-0.4,1.5-1.5,2.6-3,3C25.1,24,16.1,24,16.1,24s-9,0-11.6-0.7
	c-1.4-0.4-2.6-1.5-3-3c-0.7-2.6-0.7-8.1-0.7-8.1s0-5.5,0.7-8.1c0.4-1.5,1.5-2.6,3-3c2.6-0.7,11.6-0.7,11.6-0.7s9,0,11.6,0.7
	C29.2,1.5,30.3,2.7,30.7,4.1z M13.1,17.4l9.1-5.2l-9.1-5.2V17.4z"/>
</svg>
