<?xml version="1.0" encoding="utf-8"?>
<!-- Generator: Adobe Illustrator 25.0.0, SVG Export Plug-In . SVG Version: 6.00 Build 0)  -->
<svg version="1.1" id="Layer_1" xmlns="http://www.w3.org/2000/svg" xmlns:xlink="http://www.w3.org/1999/xlink" x="0px" y="0px"
	 viewBox="0 0 30 30" style="enable-background:new 0 0 30 30;" xml:space="preserve">
<style type="text/css">
	.st0{fill:#FBBF24;}
</style>
<path class="st0" d="M14.9,0.5c4,0,4.5,0,6.1,0.1c1.6,0.1,2.6,0.3,3.6,0.7c1,0.4,1.8,0.9,2.6,1.7c0.7,0.7,1.3,1.6,1.7,2.6
	c0.4,0.9,0.6,2,0.7,3.6c0.1,1.6,0.1,2.1,0.1,6.1c0,4,0,4.5-0.1,6.1c-0.1,1.6-0.3,2.6-0.7,3.6c-0.4,1-0.9,1.9-1.7,2.6
	c-0.7,0.7-1.6,1.3-2.6,1.7c-0.9,0.4-2,0.6-3.6,0.7C19.4,30,18.9,30,14.9,30c-4,0-4.5,0-6.1-0.1c-1.6-0.1-2.6-0.3-3.6-0.7
	c-1-0.4-1.9-0.9-2.6-1.7c-0.7-0.7-1.3-1.6-1.7-2.6c-0.4-0.9-0.6-2-0.7-3.6c-0.1-1.6-0.1-2.1-0.1-6.1c0-4,0-4.5,0.1-6.1
	c0.1-1.6,0.3-2.6,0.7-3.6c0.4-1,0.9-1.9,1.7-2.6c0.7-0.8,1.6-1.3,2.6-1.7c0.9-0.4,2-0.6,3.6-0.7C10.4,0.5,10.9,0.5,14.9,0.5z
	 M14.9,7.9c-2,0-3.8,0.8-5.2,2.2c-1.4,1.4-2.2,3.3-2.2,5.2s0.8,3.8,2.2,5.2c1.4,1.4,3.3,2.2,5.2,2.2s3.8-0.8,5.2-2.2
	c1.4-1.4,2.2-3.3,2.2-5.2s-0.8-3.8-2.2-5.2C18.7,8.6,16.9,7.9,14.9,7.9z M24.5,7.5c0-0.5-0.2-1-0.5-1.3c-0.3-0.3-0.8-0.5-1.3-0.5
	c-0.5,0-1,0.2-1.3,0.5C21,6.5,20.8,7,20.8,7.5s0.2,1,0.5,1.3c0.3,0.3,0.8,0.5,1.3,0.5c0.5,0,1-0.2,1.3-0.5C24.3,8.5,24.5,8,24.5,7.5
	z M14.9,10.8c1.2,0,2.3,0.5,3.1,1.3c0.8,0.8,1.3,2,1.3,3.1c0,1.2-0.5,2.3-1.3,3.1c-0.8,0.8-2,1.3-3.1,1.3c-1.2,0-2.3-0.5-3.1-1.3
	c-0.8-0.8-1.3-2-1.3-3.1c0-1.2,0.5-2.3,1.3-3.1C12.6,11.3,13.7,10.8,14.9,10.8z"/>
</svg>
