<?xml version="1.0" encoding="utf-8"?>
<!-- Generator: Adobe Illustrator 25.0.0, SVG Export Plug-In . SVG Version: 6.00 Build 0)  -->
<svg version="1.1" id="Layer_1" xmlns="http://www.w3.org/2000/svg" xmlns:xlink="http://www.w3.org/1999/xlink" x="0px" y="0px"
	 viewBox="0 0 30 28" style="enable-background:new 0 0 30 28;" xml:space="preserve">
<style type="text/css">
	.st0{fill:#FBBF24;}
</style>
<path class="st0" d="M25.2,23.6h-4.4v-6.2c0-1.5,0-3.4-2.3-3.4c-2.3,0-2.6,1.6-2.6,3.3v6.3h-4.4V10.9h4.2v1.7h0.1c0.6-1,2-2,4.1-2
	c4.4,0,5.2,2.6,5.2,6L25.2,23.6L25.2,23.6z M6.7,9.2C6.3,9.2,6,9.1,5.7,9C5.4,8.9,5.1,8.7,4.9,8.5C4.6,8.3,4.5,8.1,4.3,7.8
	C4.2,7.5,4.1,7.2,4.1,6.9c0-0.5,0.1-0.9,0.4-1.3C4.8,5.3,5.2,5,5.7,4.8c0.5-0.2,1-0.2,1.5-0.1C7.7,4.8,8.1,5,8.5,5.3
	C8.8,5.6,9.1,6,9.2,6.5c0.1,0.4,0,0.9-0.1,1.3c-0.2,0.4-0.5,0.8-0.9,1C7.7,9.1,7.2,9.2,6.7,9.2L6.7,9.2z M8.9,23.6H4.5V10.9h4.4
	L8.9,23.6L8.9,23.6z M27.4,1H2.3C1.1,1,0.1,1.8,0.1,2.9v22.7c0,1.1,1,1.9,2.2,1.9h25.1c1.2,0,2.2-0.9,2.2-1.9V2.9
	C29.6,1.8,28.6,1,27.4,1L27.4,1L27.4,1z"/>
</svg>
