<svg width="32" height="25" viewBox="0 0 32 25" fill="none" xmlns="http://www.w3.org/2000/svg">
<path d="M30.6932 4.12417C31.39 6.75186 31.39 12.2373 31.39 12.2373C31.39 12.2373 31.39 17.7227 30.6932 20.3504C30.306 21.8029 29.1732 22.9457 27.7386 23.332C25.1331 24.0339 16.1442 24.0339 16.1442 24.0339C16.1442 24.0339 7.15987 24.0339 4.5498 23.332C3.10907 22.9398 1.97784 21.7984 1.59517 20.3504C0.898438 17.7227 0.898438 12.2373 0.898438 12.2373C0.898438 12.2373 0.898438 6.75186 1.59517 4.12417C1.98241 2.67171 3.11517 1.52891 4.5498 1.14257C7.15987 0.440674 16.1442 0.440674 16.1442 0.440674C16.1442 0.440674 25.1331 0.440674 27.7386 1.14257C29.1793 1.53481 30.3106 2.67613 30.6932 4.12417ZM13.095 17.3983L22.2425 12.2373L13.095 7.07627V17.3983Z" fill="#3E8989"/>
</svg>
